<!--Credit: 全字庫正楷體 https://www.cns11643.gov.tw/-->
<svg height="100" width="100" xmlns="http://www.w3.org/2000/svg">
  <circle r="48.5" cx="50" cy="50" stroke-width="3" stroke="#000" fill="#fff"/>
  <circle r="43.5" cx="50" cy="50" stroke-width="3" stroke="#d00" fill="none"/>
  <path fill="#d00" transform="translate(14,13) scale(0.07,0.07)"
d="M147.35 288.462q0.8125 0 1.65039 0.0380859q7.00977 0 29.9756 6.26367q0.654297 0.210938 10.6074 3.94336l16.8564 -30.3418q9.74707 -17.5449 19.5283 -42.9775l16.0986 -43.25q11.5674 -27.9551 13.5801 -50.0908q2.01172 -22.1357 4.8877 -27.8867
q5.33008 -10.6602 18.4658 -10.6602q7.10254 0 10.8799 1.57324l24.2568 10.1133q13.6836 6.31543 29.4805 17.8994q14.8828 12.4033 14.8828 22.9141v2q0 6.36328 -10.3691 15.4746q-5.44629 5.47363 -10.9463 12.7783q-5.4541 8.57812 -30.335 37.4453l-38.9209 51.8955
l-40.71 50.6943q57.0273 -9.94434 77.0654 -16.623q20.0371 -6.67969 34.7422 -12.5547q15.8467 -7.38379 24.4346 -8.61035h0.539062q7.29199 0 22.5908 5.2793t21.4434 8.63086q6.14453 3.35059 19.3857 13.5283q16.0801 11.1816 16.0801 23.0615v2.77148q-1 2 -1 2.22852
v1.77148q-2.81348 5.62695 -14.3721 19.3564q-11.5586 13.7305 -16.1016 25.499l-26.499 72.873l7.9082 8.64941q4.06445 6.77344 4.06445 11.8506v2.92871l-0.223633 0.893555q-1.92871 7.71777 -16.6113 13.5908l-33.9941 2.06055l-138.475 16.2344l-3.30273 71.0059
q25.8164 -2.74902 50.9346 -8.34668q44.1006 -9.82715 72.3301 -24.8193q17.1484 -11.4141 24.8418 -12.0479h3q11.1328 0 26.4453 4.75098q15.3125 4.75195 30.9746 12.3027q15.6631 7.55078 20.8252 15.2939q5.25488 7.88281 5.25488 14.1523v2
q0 6.74219 -12.0801 27.8828q-7.19824 11.1963 -12.2617 21.9482q-3.96973 8.42969 -10.9365 35.1973l-14.1455 50.3945q17.4238 8.13184 17.4238 20.5771q0 3.62207 -1.6543 7.0752q-3.67285 8.66699 -19.6055 11.3223q-0.860352 0.0927734 -20.6963 1.08496
l-95.79 8.98047q-9.75977 0.975586 -34.4639 4.92676q-25.0156 4.68555 -32.2275 1.94141l-9.92969 -1.10254q-3.02344 16.7607 -4.68457 26.71q-1.20996 14.4277 -5.77637 18.9941q-4.56738 4.56738 -9.07227 4.56738q-4.50586 0 -7.3418 -1.08203
q-9.74609 -0.919922 -17.2031 -11.8213q-8.3916 -9.5459 -15.7646 -23.2383q-13.79 -25.6094 -13.79 -56.3584q0 -10.8818 9.0332 -49.0215q15.4092 -65.0596 17.9688 -193.131q1.00098 -50.0762 2.00391 -75.1523l0.0166016 -0.277344q0.977539 -12.71 0.977539 -21.251
q0 -19.4805 -6.64648 -42.874q-6.50977 -18.1426 -12.6816 -26.7178t-6.67188 -16.5752v-2.22168q2.11133 -6.33496 7.91602 -10.7139q6.08203 -5.60254 15.9336 -5.60254zM335.539 646.223q1.96094 -22.585 1.96094 -30.3125q0 -7.72852 -0.297852 -10.2783
q-5.61914 -5.3252 -9.20801 -5.3252q-0.833008 0 -1.99414 0.193359q-8.7793 0 -26.5312 5.58691q-13.6016 5.18945 -44.1611 11.3008q-30.5586 6.1123 -35.3076 6.1123h-15.8652l-5.19727 103.949l47.124 -5.89062q17.6016 -2.1123 40.6729 -6.95215l41.4824 -7.06055z
M212.377 363.102l-1.7168 97.8301l113.913 -21.3584q16.7412 -89.2871 16.834 -91.1377q0.0927734 -1.84961 -1.23535 -3.70215q-7.4209 -3.40234 -31.0166 2.45996q-17.5977 6.1582 -44.4541 10.2119t-34.0674 4.56836zM759.021 335.56q22.2227 -2.89844 39.4561 -8.97852
q17.2334 -6.08105 24.7275 -6.08105q7.49512 0 20.7617 6.59766q11.4971 4.23828 24.8516 12.4463q35.6816 20.415 35.6816 37.4561q0 6.97559 -8.79395 22.3809q-3.51465 7.9541 -5.33496 14.1348q-0.935547 7.76758 -1.88086 22.8789l-4.00098 97.0156
q-4.17773 77.2861 -12.2412 107.524q-4.22168 15.8291 -10.7363 28.0449q-6.51562 12.2158 -22.9473 32.0596q-11.5645 12.9609 -23.5645 13.4609h-2q-8.62891 0 -15.2559 -5.30176q-6.62598 -5.30078 -15.3135 -21.5781q-7.43555 -12.9824 -18.5781 -24.1631
l-17.998 -15.998l-19.9561 -19.9561q-15.0371 -12.9688 -6.20117 -21.8057q4.19824 -4.19727 10.1826 -4.19727t10.8145 1.19141q37.001 7.92871 44.7314 8.80859h10.3193q1.85645 -5.1084 3.83008 -23.5684q3.92285 -27.4707 3.92285 -35.9316l2.00098 -120.019
q-1.08594 -30.1797 -4.58203 -41.208q-3.63672 -2.04785 -10.5615 -3.27344h-18.877l-72.1182 9.12891l-8.86035 416.453q-0.00878906 49.6758 -12.2002 113.681q-12.1006 41.3447 -12.333 42.0186q-4.67871 11.6963 -8.53613 18.002t-9.50195 7.7168h-7.55566
q-11.4521 -1.90918 -16.6357 -22.6221q-4.15234 -15.5967 -6.20605 -38.1914l-0.0117188 -0.145508q-1.01953 -14.2695 -1.01953 -26.541v-12.0459l2.94531 -488.956l-62.1582 11.3008q-0.987305 26.9111 -2.78711 45.082q-0.0400391 18.4014 -4.06348 60.6494
t-10.1602 66.792l-11.0752 44.2783q-7.32031 25.0977 -14.7539 36.248q-7.43359 11.1514 -16.4473 11.1514q-6.10449 0 -12.6357 -6.53125t-10.9658 -15.3994q-4.43359 -8.86719 -9.66602 -27.7041q-5.23242 -18.8379 -5.23242 -28.0322q0 -9.19531 3.50293 -18.5371
l11.9775 -30.9424q6.74316 -18.3223 10.6318 -42.1387q3.8877 -23.8174 3.8877 -44.2148q0 -20.3574 -2.89453 -40.7246q-2.80078 -13.8623 -8.04395 -24.0811q-7.94238 -15.4766 -9.06152 -22.1943v-5q0 -7.10449 3.64551 -10.75t10.708 -6.4707
q6.39746 -1.2793 12.1465 -1.2793h0.875977l44.4932 9.90723l79.0889 -9.09082l-0.958008 -154.316q0 -20.5801 -2.95703 -47.1934q-2.83398 -26.4482 -10.9385 -40.6318q-8.10449 -14.1826 -8.10449 -20.1748v-3q0 -8.10449 4.53125 -12.6357
q8.86426 -8.86426 19.9688 -8.86426q7.4043 0 16.8223 2.22363l32.5479 8.15918q39.7559 13.252 44.8428 31.0557l0.287109 1.00586v1.05566q0 7.2041 -4.08789 19.9707t-6.99805 32.667q-2.91113 19.9014 -2.91113 40.3623l-2.81934 137.158z" />
</svg>