<!--Credit: 全字庫正楷體 https://www.cns11643.gov.tw/-->
<svg height="100" width="100" xmlns="http://www.w3.org/2000/svg">
  <circle r="48.5" cx="50" cy="50" stroke-width="3" stroke="#000" fill="none"/>
  <circle r="43.5" cx="50" cy="50" stroke-width="3" stroke="#d00" fill="none"/>
  <path fill="#d00" transform="translate(14,13) scale(0.07,0.07)"
d="M80.5986 604.923q-11.0273 8.57715 -19.0166 8.57715t-10.6992 -8.12988q-1.38281 -4.14844 -1.38281 -9.00879q0 -4.86133 4.81836 -11.2842l19.2686 -19.2686l45.8447 -49.8311q30.7402 -34.7129 62.5479 -78.4482q31.8213 -42.7598 56.7021 -82.5693
q24.6807 -38.501 38.4434 -69.96l0.25293 -0.521484q26.8613 -50.3662 37.3457 -92.3008q4.77637 -16.999 4.77637 -27.1777l0.0195312 -0.541016q1.06641 -14.9395 3.43262 -22.0371q4.38574 -10.9639 20.0479 -12.9219q5.05566 0 13.7266 2.47754l15.6201 7.30957
q8.7041 4.35254 20.2744 13.8057q12.499 9.39258 22.6885 20.7246q10.1904 11.333 10.1904 20.1826v2q0 9.71191 -13.6104 19.7148l-13.5869 13.5879q-2.94531 2.94434 -9.74219 16.332l-19.9961 36.002q-62.96 104.932 -76.7354 121.085l-4.87012 6.33105
q1.94824 1.4082 3.46484 2.80273q4.52246 2.50879 12.7061 9.66992q8.18457 7.16016 16.2773 16.4092t8.09277 18.0654v2q0 7.31641 -3.55371 20.374t-5.4707 29.2812q-1.00977 18.0605 -2.99121 38.3828q-1.98242 20.3232 -1.98242 46.9619l-2.00195 139.055v45.7295
q4 70.668 4 78.2158v0.626953q-5.28613 31.7178 -15.7871 52.7197q-9.69043 19.3799 -24.7842 23.1533h-0.928711q-8.00098 0 -16.0322 -12.0283q-6.02441 -7.37891 -10.9795 -19.8057l-8.10547 -21.2959q-8.38281 -25.1484 -8.38281 -39.3701q0 -7.14941 5.06641 -23.3623
q5.06641 -16.2139 7.01758 -32.3008q1.95117 -16.0879 3.93945 -43.4375q1.98926 -27.3496 3.99219 -43.499l4.98438 -145.531v-41.7627q-0.947266 -34.1123 -0.99707 -41.3184l-2.77148 -13.3936q-7.64258 8.27637 -41.1924 45.6592q-21.4775 23.5264 -50.0439 44.9512
l-59.9707 42.9795zM338.5 519v-4.77148l0.787109 -1.5752q3.83496 -7.66992 18.6406 -10.0771l230.572 -33.0781v-163.498q0 -9.63867 -1.96582 -30.2812q-1.95898 -20.5732 -4.88281 -37.2002q-3.79492 -16.0342 -10.7344 -29.9131t-9.41699 -22.5498v-4.05566
q0 -8.00684 4.64062 -14.6797q6.25586 -7.82031 24.8594 -7.82031q21.373 0.819336 61.7148 16.5068q16.3418 6.74902 29.0195 18.1641q13.9746 10.2275 14.7656 19.8291v3q0 7.66211 -3.78711 16.3467q-7.71289 15.4248 -10.5635 24.9277
q-7.94141 26.4707 -9.66113 59.1475q-0.985352 17.79 -0.985352 48.5781l-1.8252 91.1973l137.421 -21.6436q24.4326 -2.93164 49.1289 -9.99316q24.6953 -7.06055 35.7725 -7.06055q19.5928 0.8125 53.5098 19.8691q16.6094 8.31445 22.4902 14.0312
q11.3945 9.33105 12.5 22.5996q0 3.14844 -1.30176 7.125q-3.58496 13.3389 -28.0273 13.375l-67.6055 2.98242l-56.9521 5.99512l-110.901 8.98926l-46.2705 4.36523l-1.86523 217.349q72.915 -11.7607 100.286 -17.2207q27.3721 -5.45996 41.4717 -5.45996
t29.4014 6.51172q14.5244 5.21094 26.0703 12.5205q11.6523 6.3916 22.543 16.1934q9.15137 10.458 9.15137 19.2744v1.74902q-1.77246 8.85938 -8.51367 12.625q-9.22656 6.57031 -38.5869 8.11523l-0.199219 0.0107422q-33.9473 0 -123.678 5.98242
q-28.8018 1.98633 -77.5732 7.95801l-79.0107 10.001q-31.6992 3.96289 -55.9297 9.01074q-24.2295 5.04785 -39.1875 5.04785t-36.0908 -6.49902q-21.1328 -6.5 -30.7939 -18.5762q-7.43652 -11.1553 -7.43652 -17.4248v-1.92871l0.223633 -0.893555
q1.43066 -5.72461 8.86914 -8.2832q7.4375 -2.55957 20.3516 -4.32031l163.499 -23.083l-1.86914 -215.882l-76.5566 10.6826q-2.99902 1.1543 -32.541 7.0625q-15.2109 3.04199 -40.1279 9.02441q-10.8711 1.97656 -16.4033 2.10938q-10.0635 2.34082 -22.5957 -1.15918
q-12.2871 -2.08594 -28.3848 -7.10547q-18.3018 -4.625 -26.8838 -14.5381q-8.58105 -9.91309 -8.58105 -17.6855z" />
</svg>