<!--Credit: 全字庫正楷體 https://www.cns11643.gov.tw/-->
<svg height="100" width="100" xmlns="http://www.w3.org/2000/svg">
  <circle r="48.5" cx="50" cy="50" stroke-width="3" stroke="#000" fill="none"/>
  <circle r="43.5" cx="50" cy="50" stroke-width="3" stroke="#d00" fill="none"/>
  <path fill="#d00" transform="translate(13.25,13.5) scale(0.07,0.07)"
d="M303.111 196.032q5.38867 -11.5771 5.38867 -24.123q0 -12.5449 -4.5 -24.5449t-4.5 -18.3643q0 -19.0459 23.0264 -20.4854l0.236328 -0.0146484q23.8486 0 55.6953 25.4756q31.8477 25.4766 38.7158 43.791q1.32617 5.30469 1.32617 10.2334q0 12.8496 -10.208 24.334
q-23.5576 20.6123 -51.9834 64.7207l-0.102539 0.155273q-48.3203 71.0596 -93.1104 124.298q8.51758 7.20898 38.4863 43.4756q6.91797 7.19629 6.91797 23.0166q0 9.62598 -2.09863 22.2158q-7.90137 48.3984 -7.90137 250.784v47q0 49.3359 -16.457 92.582
q-7.76758 21.918 -23.043 21.918q-8.49805 0 -18.6484 -7.6123q-13.9541 -11.6279 -24.5498 -50.7715q-11.4961 -36.2256 -5.05664 -59.0283q24.7646 -102.097 26.7549 -205.162q0 -33.8281 -1 -72.8281q0 -26.3877 -14.2549 -56.8359
q-0.369141 -0.737305 -0.738281 -1.45801q-52.7168 57.6152 -92.0781 87.248q-30.9482 22.6953 -45.207 27.4482h-3.22168q-17.5 0 -17.5 -13.5q0 -3.77148 2.625 -9.02246q2.625 -5.25 14.2773 -17.9688q72.7305 -83.6953 128.882 -161.711
q56.1504 -78.0146 93.8271 -165.266zM496.667 601.166q-3.55957 16.7168 -14.667 17.334q-9.54785 0 -23.6064 -15.5205q-17.4287 -19.6064 -22.7832 -52.6904q-17.8105 -95.9336 -47.3232 -155.942q-5.78711 -11.5752 -5.78711 -18.4697q0 -6.89551 3.01465 -11.6592
q4.22852 -7.74609 13.3564 -7.74609q5.61523 0 10.3203 1.09863q12.8652 1.05371 26.5762 4.85254q54.1572 -4.02051 122.913 -15.8066l38.8193 -6.90137v-52.1074q-25.5088 3.64453 -51.0234 8.74707q-13.2246 2.14551 -32.2246 2.14551q-19.001 0 -34.9023 -3.18066
q-26.2266 -6.55664 -41.5381 -19.1826t-15.3115 -22.1367q0 -4.0127 2.34082 -7.19922q5.36426 -7.30078 23.1592 -7.30078h5.8584q76.8291 -2.85449 143.635 -14.7588q-0.0742188 -35.126 -0.989258 -63.4951v-0.123047q0 -32.5381 -28.207 -55.2822
q-9.79688 -8.14648 -9.79688 -17.8408q0 -7.37793 6.19727 -14.3027q11.1982 -11.1973 28.3027 -11.1973q4.74902 0 10.6504 1.18066q41.6543 10.4131 67.9775 30.4189q16.8721 13.2568 16.8721 28.9004q0 8.0166 -1.88379 11.5342q-14.2754 26.6455 -17.1426 60.0957
q-0.644531 7.73633 -1.29004 16.3184q30.8174 -5.68262 62.3916 -15.0537q29.2783 -7.40918 37.7158 -7.40918q0.375 0 0.708984 0.0146484q15.0664 0 31.042 5.27441q34.624 8.15723 42.0752 26.8555q1.38281 4.14844 1.38281 7.37012q0 10.1045 -8.40332 18.5078
q-9.67773 8.29492 -65.1416 15.9316q-51.7871 6.59082 -104.477 15.8535q-0.160156 23.9736 -1.5293 52.1543l39.167 -4.89551q63.127 -7.42676 84.4814 -15.667q6.40234 -1.88477 13.4023 -2.38477q13.2715 0 28.5215 7.87793q45.998 24.5322 63.8604 43.3994
q8.11816 8.17188 8.11816 18.1055q0 10.3926 -9.08984 20.3096q-22.5586 23.498 -31.0869 55.457q-21.1289 114.648 -34.8057 137.068q-11.0811 20.7822 -26.5176 20.7822q-4.22168 0 -8.76172 -1.51367q-14.0693 -6.49316 -31.6553 -26.4834
q-51.5693 0.0791016 -95.0889 2.5625q-0.0644531 36.4727 -0.796875 69.6299q115.061 -11.5283 188.234 -22.1201q7.5293 -1.0752 15.0684 -1.0752q16.835 0 30.835 5.55469q24.7002 10.1055 54.0049 34.2178q15.6602 13.251 15.6602 26.7275q0 4.77148 -2.78711 10.3467
q-6.07715 12.1533 -29.7129 12.1533h-4q-21.1738 0 -104.283 -4.00488q-56.043 -0.992188 -87.9346 -0.993164q-31.8916 -0.00195312 -75.2852 1.69824q-0.111328 120.407 -4.01758 167.367q-2.83691 42.4775 -12.7891 63.835q-7.47754 17.1113 -19.0303 17.1113
q-0.329102 0 -0.660156 -0.0136719q-9.6543 0 -16.542 -10.8311q-9.76074 -17.3525 -13.9189 -57.8965l-0.0273438 -0.358398q-4.79688 -87.9385 -2.01172 -160.561v-13.7578q-89.2705 7.00195 -171.26 21.3018q-6.61328 1.10254 -16.9209 1.10254
q-36.1914 0 -62.8799 -28.4678q-8.93945 -10.2158 -8.93945 -17.0322q0 -13.9453 19.9268 -15.4785q128.104 -9.70508 241.081 -22.2334q0.0742188 -31.5293 0.831055 -71.2139q-52.1025 3.94531 -88.5713 11.4258h-0.767578q-5.32812 0 -10.333 -0.333984zM736 522.5
q16.8438 0 28.0381 6.30371q2.52148 -2.34961 5.07422 -6.0127q2.6709 -9.96094 8.95312 -46.9014q-62.2852 2.73926 -114.565 7.0127v49.4092l52.2754 -7.71289q11.5869 -2.09863 20.2246 -2.09863zM508.952 504.5h-6.95215q-6.41211 0 -12.8193 -0.927734l6.31934 36.4277
q0 5.33496 0.777344 11.1064q46.2285 -2.91699 100.247 -9.71484q0.130859 -18.0703 0.975586 -37.5566v-14.4873q-51.9893 5.77832 -88.5479 15.1523zM481.133 456.196q54.8301 -3.91895 116.367 -14.5039v-54.2881q-72.8682 8.52148 -123.664 22.0615
q1.33301 15.4053 7.29688 46.7305zM751 370.5q-4.46289 0 -28.5566 1.85449q-24.0928 1.85449 -58.9434 6.24219v52.5742q33.21 -5.49121 71.1221 -12.5439q11.6963 -2.12695 25.1172 -2.12695t24.832 6.32617q1.32715 -11.4199 3.91602 -24.5068
q-0.341797 -9.17871 -9.67969 -21.0635q-4.05371 -6.75586 -27.8076 -6.75586z" />
</svg>