<!--Credit: 全字庫正楷體 https://www.cns11643.gov.tw/-->
<svg height="100" width="100" xmlns="http://www.w3.org/2000/svg">
  <circle r="48.5" cx="50" cy="50" stroke-width="3" stroke="#000" fill="none"/>
  <circle r="43.5" cx="50" cy="50" stroke-width="3" stroke="#d00" fill="none"/>
  <path fill="#d00" transform="translate(11.75,11.5) scale(0.07,0.07)"
d="M331.5 451.251v2.74902q0 8.05566 -4.28711 23.0615q-1.71289 5.99414 -1.71289 20.9385v0.50293l-4.0498 30.373q-1.94531 19.5859 -1.94531 46.124l-5.00781 205.221q-1.96484 67.7871 -3.00098 76.3037q-0.111328 7.00195 -3.32324 15.709
q-2.78613 10.9014 -8.22754 22.2158q-6.36621 13.2393 -10.1816 18.3477q-7.25293 8.70312 -15.7637 8.70312q-8.40137 0 -16.9287 -9.74512q-9.31348 -10.6445 -14.1523 -23.2793l-14.1318 -39.4141q-2.28711 -8.00586 -2.28711 -20.0615v-0.539062
q1.15137 -8.0625 6.18066 -25.1621q7.87793 -26.7842 14.8828 -72.292q2.96973 -26.7129 4.97461 -39.834l3.99512 -59.9268l4.98633 -49.8232q0.980469 -18.7129 0.980469 -37.4229v-18.9023l-0.995117 -38.8262l-2.21777 -22.9248l-2.24121 -6.48828l-17.6152 20.3115
l-40.3174 42.334l-45.2939 37.2412q-25.4141 21.3477 -36.4844 25.9941l-16.6221 9.77734q-8.7207 4.9834 -15.0752 4.9834q-6.35352 0 -9.70215 -5.03418q-1.93555 -2.46582 -2.43555 -6.46582q0 -8.58301 12.416 -20.5117l12.8291 -11.8428l22.9521 -23.9482
q12.7803 -12.7793 33.5977 -37.5625t41.7012 -52.6289q20.875 -27.832 36.7588 -51.6582q15.8662 -23.7988 38.7803 -63.6494q22.7666 -38.6035 32.583 -61.1826q8.09961 -18.6299 14.6963 -43.1709q7.68555 -25.6172 7.68555 -46.8447v-21.749
q1.76855 -8.84082 7.2627 -12.6387q6.50293 -4.49414 15.2373 -5.1123q25.168 0 54.1152 27.0166q16.0654 15.5215 19.7246 23.7314q3.66016 8.20996 3.66016 12.752v0.749023q-1.48926 7.44336 -5.66992 11.1953q-2.77441 4.58008 -10.7012 11.5322
q-6.52148 6.5459 -12.125 14.0176q-5.64844 7.53125 -14.3262 23.9209l-20.0693 39.1328q-17.5977 32.6807 -30.3633 52.6045q-4.63574 6.95312 -26.0352 40.0518l-14.4639 21.3154q15.4111 9.3584 26.8604 21.501q9.35156 10.5205 10.8936 18.2305zM957.5 575
q0 6.94434 -6.02539 17.7891l-13.0176 21.0293q-7.16406 12.7119 -11.0889 54.4297q-3.92578 41.7188 -8.9834 72.0684l-11.041 62.2285q-8.10742 33.4453 -16.3184 60.1318q-8.21191 26.6865 -23.918 48.6758q-15.6787 21.9502 -32.3955 34.4873
q-16.7158 12.5371 -35.2646 21.8223q-14.5898 7.83789 -25.4473 7.83789h-3.8291q-13.5977 -3.02148 -23.8467 -22.0811l-19.8242 -38.6045q-2.49316 -4.70898 -13.582 -22.6211q-11.0889 -17.9131 -15.0791 -23.915l-7.57422 -10.4141q-5.76465 -5.90723 -5.76465 -11.4375
q0 -5.53125 4.19727 -9.72949q4.19824 -4.19727 10.1367 -4.19727q6.09668 0 11.667 2.86719l17.1338 9.07227q25.3096 14.0605 38.3652 14.0605h3q11.8779 0 24.7178 -7.97168q12.8398 -7.9707 22.1074 -22.7988t16.9658 -39.8096q5.71973 -21.2783 11.8115 -61.1602
q11.8477 -71.0879 11.8975 -122.427q-1.7959 -20.0244 -7.68848 -25.917q-5.89355 -5.89355 -29.6768 -5.91602q-55.3008 1.97949 -108.75 7.46191q-53.4482 5.48145 -87.2861 10.458q-58.2383 8.56445 -87.0371 16.793q-15.3662 3.83691 -22.6475 7.46582l-19.0674 10.0342
q-7.5752 3.78711 -12.3115 3.78711q-11.708 0 -18.748 -13.1533q-1.08008 -2.16113 -10.876 -18.7627q-10.0156 -18.3633 -10.0156 -24.8887q0 -8.30664 2.40137 -12.9102q2.40137 -4.60254 6.75684 -11.1357q4.35547 -6.53223 7.12695 -21.3135
q3.91211 -14.6729 5.88086 -35.3418l7.94238 -85.2842l1.99609 -115.775v-13.9346q0 -42.4854 -9.31348 -61.8633q-5.94531 -12.8799 -7.56543 -17.0088q-1.62109 -4.12793 -2.12109 -8.12793q0 -4.7959 3.74023 -8.82812q4.39551 -5.67188 17.248 -5.67188t33.0498 7.44141
l23.377 8.41504q120.068 -13.0029 193.608 -27.7109q35.834 -6.6709 66.5381 -13.8955q10.877 -3.25 16.9385 -3.25h2q5.36426 0 22.4375 6.40234q17.1016 5.37207 26.2158 13.207q9.84668 7.15625 9.84668 15.8906v2.22168q-2.22266 6.66797 -9.23926 10.9658
q-6.62793 5.07617 -15.4893 5.30273l-68.4609 12.8955q-18.207 3.21289 -70.4336 8.88965q5.7168 5.78418 7.62305 11.5029v4.22168q0 3.92871 -1.42188 9.61523q-3.96191 7.9248 -5.85547 12.5342q-0.870117 4.54102 -1.75293 11.5664l-1.36133 21.1035
q44.874 -8.54688 75.9629 -16.3193h3.92871q7.10547 0 18.2061 3.33008l25.8877 7.96582q13.8008 3.7832 18.7646 12.0576q1.6416 4.9248 1.6416 8.14648v4.44727q-2.4834 6.20801 -8.32617 9.12988q-5.84277 2.9209 -15.6621 4.77148l-17.8799 3.97266
q-9.45703 2.10156 -33.7812 4.13379l-69.5752 10.0381l-2.45801 69.6387l31.1836 -5.56543q14.4092 -1.92188 25.9014 -4.77441q14.5176 -4.29492 16.0977 -4.29199q7.14941 0 23.5439 5.12305q2.99414 0.935547 25.8262 7.25977q11.0908 3.69727 14.8604 9.40723
q6.5498 9.92188 2.48242 18.0566q-3.66211 7.32422 -23.2012 11.002l-18.2236 4.0498l-99.9482 11.2432l-1.62793 66.7822l101.602 -12.8926q20.2227 -1.83887 35.9268 -6.43457q15.7041 -4.59668 21.7598 -4.59668q9.83887 0.542969 18.5615 4.14453
q8.72266 3.60254 35.9307 18.7158q28.9502 14.4834 36.9834 23.5117q9.02441 9.12109 9.02441 19.1279v2zM560.237 363.5h-14.8027l-12.083 -1.8125q-2.65039 22.1396 -2.85156 26.3125q-0.0195312 0.550781 -3.56934 49.3486l89.2021 -12.7988l19.4453 -2.24414
l0.820312 -69.7412q-7.76953 1.08105 -11.8779 1.94238q-33.8408 7.09082 -64.0469 8.97852zM623.587 231.057q-46.292 6.44336 -61.5869 6.44336h-14.1426l-6.52637 26.1064q-2.88086 15.3926 -3.85059 24.9736l-1.50781 28.6396q9.08301 -1.32715 22.0186 -2.98633
l62.0312 -9.66992l16.7266 -2.18164l0.750977 -19.5283q0 -17.0879 -0.918945 -25.6982q-1.7793 -8.78027 -3.38574 -11.9922q-1.43359 -2.86719 -9.6084 -14.1064zM552.271 482.5h-13.8105l-13.4521 -1.92188l-3.50879 59.6455v13.2109q0.229492 1.45312 0.538086 2.62793
q1.65332 0.4375 5.42188 0.4375t7.21094 -1.72168l99.9072 -16.1758l0.813477 -65.9023q-5.28613 0.805664 -10.8115 1.76758q-5.52539 0.960938 -31.7129 3.98242q-26.1621 3.01855 -40.3262 4.03027zM577.483 673.713q-2.9834 -5.2207 -2.9834 -10.8525
q0 -15.3604 14.5 -15.3604q4.89355 0 9.62988 1.47461l15.6182 5.85742q8.70215 2.25 17.2773 7.5293q9.80273 4.47852 23.0459 15.6006q28.9287 24.2959 28.9287 55.0381v7l-0.0195312 0.541016q-1.12891 15.8047 -9.06934 28.3535q-8.4873 14.5 -19.3555 17.6055h-2.05566
q-11.1045 0 -24.3027 -13.1973q-8.99805 -8.99902 -18.5264 -31.1963l-15.1377 -31.3252q-7.64453 -19.1133 -9.66309 -23.2666zM573.5 757q0 13.1875 -2.38281 21.3701q-4.55859 13.6758 -13.2852 22.4033q-8.72754 8.72656 -19.832 8.72656q-14.5752 0 -26.585 -23.8994
q-7.27051 -12.2217 -12.6279 -29.5391l-7.95508 -27.8447q-6.01074 -18.0439 -8.10449 -27.3643q-2.11621 -7.40625 -5.22754 -19.8525q0 -7.10449 4.19727 -11.3027q7.76953 -7.76855 20.0156 -1.21387l21.1553 12.0889q11.6348 7.40332 20.2148 14.9121
q8.58105 7.50781 18.0615 22.2061q11.1982 14.6963 12.3389 31.8047l0.0166016 0.250977v7.25391zM689.49 643.752q-4.99023 -7.60059 -4.99023 -13.2285t4.04297 -9.84961t9.31836 -4.22168q0.561523 0 3.58203 0.0234375q3.02051 0.0244141 8.32324 2.5293l15.833 4.94824
q7.55078 3.23633 18.0234 8.47266q26.9395 13.4697 43.6904 39.5264q8.18652 13.3613 8.18652 34.0479v4.62695q-2.32715 13.9609 -10.4346 27.8594t-19.0098 17.0137h-2.05566q-10.1045 0 -23.3027 -13.1973q-9.42773 -9.42871 -19.5361 -31.2217l-13.9668 -30.9258z
M449.5 727v4q0 25.8271 -14.3467 71.2578q-6.41992 18.2422 -20.5625 34.7422t-26.5908 16.5q-14.2178 -0.707031 -22.5127 -15.7783q-10.9873 -18.3936 -10.9873 -43.7217q0.926758 -18.6377 15.1934 -40.0596l9.74609 -15.5938q2.2002 -4.48047 11.6953 -25.3701
q8.66406 -20.2197 10.6094 -26.8887l5.01953 -21.0635q3.63965 -13.3477 10.6895 -18.0205q4.94043 -2.52148 5.69727 -2.52148q0.757812 0 0.849609 0.0175781q9.26367 0 15.0254 14.8701l3.0918 8.25977q3.01758 9.05176 5.2002 29.5303t2.18262 29.8398z" />
</svg>