<!--Credit: 全字庫正楷體 https://www.cns11643.gov.tw/-->
<svg height="100" width="100" xmlns="http://www.w3.org/2000/svg">
  <circle r="48.5" cx="50" cy="50" stroke-width="3" stroke="#000" fill="none"/>
  <circle r="43.5" cx="50" cy="50" stroke-width="3" stroke="#d00" fill="none"/>
  <path fill="#d00" transform="translate(15,11) scale(0.07,0.07)"
d="M317.5 174q0 7.67383 -4.11035 18.8135q-4.11133 11.1406 -8 33.9902q-3.88965 22.8496 -3.88965 30.1963q-0.00878906 0.359375 -6.00488 127.268l-1.18262 33.707q8.00195 -10.5215 13.5098 -18.2285q9.72168 -14.5908 16.5156 -27.1943
q18.8164 -37.6729 22.2373 -61.6201q2.90137 -16.2686 10.4512 -22.5518q7.22559 -6.73438 29.8535 2.69336q13.835 6.33301 25.9717 17.2051q10.9834 8.84082 18.3154 21.2422q7.33301 12.4023 7.33301 20.4795v2.74902q-1.90723 9.53516 -11.8848 15.8223
l-28.4668 15.7061l-62.5986 48.6836q-17.3828 13.293 -24.0234 16.6611l-19.3994 10.9648q-2.76562 31.7432 -4.70898 60.9014q-5.01367 75.2021 -12.1484 100.373l-8.29785 36.5127q20.4629 4.95508 51.083 19.0088t42.2275 22.459q14.0498 9.43555 19.8262 27.7578
q6.66504 21.2373 3.16797 35.2227q-3.45508 13.8203 -10.7695 21.2734q-7.89551 9.0498 -20.0859 10.4043h-1.4209q-11.2969 0 -24.5293 -14.4346q-0.512695 -0.623047 -14.4717 -19.5674l-53.8193 -70.3125l-17.2686 44.7314q-11.2617 26.6182 -30.6152 55.1602
q-19.667 31.6553 -40.2002 51.4238l-41.2422 38.2158q-20.5078 17.4316 -33.2158 24.8438l-16.9629 8.98047q-6.63477 3.95898 -12.0166 3.95898t-8.74707 -5.07812q-2.41113 -3.02539 -2.41113 -7.97266t4.72754 -11.251l12.2949 -13.3193
q28.6387 -30.6133 51.3379 -62.1855q37.9424 -55.2061 62.0693 -123.199q10.834 -30.5312 20.7207 -74.002q7.93457 -43.6641 12.8975 -83.3477q3.96484 -38.7021 5.9541 -99.333q0.998047 -59.9121 0.998047 -118.652t-3.90234 -94.8223t-11 -49.2637t-7.09766 -21.6797
t6.19727 -14.6963q6.19824 -6.19727 21.2383 -6.19727q16.8408 0 35.3223 5.34668q19.998 6.31445 32.9541 15.9395q15.6328 9.6582 17.2881 19.5869v0.626953zM170.696 457.123q19.8037 23.1045 19.8037 53.2393q0 9.98438 -1.68555 21.3076
q-1.68555 11.3242 -9.11133 21.2236q-7.4248 9.90039 -20.9541 12.6064h-0.749023q-13.2285 0 -29.3965 -17.292q-13.8105 -13.876 -33.2725 -52.7734q-8.16309 -15.3174 -14.2979 -30.6533l-10.1504 -25.4111q-5.21484 -15.6436 1.81445 -22.6729
q4.19824 -4.19727 10.625 -4.19727q7.66992 0 12.915 1.33984l16.3926 5.13477q16.6133 6.23047 30.1895 14.5703q15.0713 8.63867 27.877 23.5781zM652.5 513q0 9.70605 -9.03223 22.3037t-12.9141 20.3613q-4.71777 7.54785 -8.42676 18.6748l-21.2598 64.7041
q3.94238 2.87207 7.87598 6.14746q7.75684 6.24609 7.75684 14.8086v2.53906q-1.9834 13.8828 -24.0264 15.9463l-15.4678 0.966797l-109.519 22.6592q-0.100586 23.9043 -0.987305 47.0352v39.6992q0.959961 23.5176 7.33105 38.5439q6.37207 15.0264 19.9609 26.8408
q13.7266 10.8828 51.4375 19.5859q37.7109 8.70215 82.9365 9.68555l0.338867 0.0146484q40.4355 2.69629 88.1768 -2.09863t81.043 -14.5684q32.3604 -11.1211 47.9619 -27.8926t21.1006 -36.0186l0.201172 -0.604492q7.72266 -20.2715 12.5977 -51.4697l6.98926 -45.9326
q2.91895 -20.4316 14.4248 -20.4316h1q12.2744 0 15.3604 18.0371l10.0117 44.0537q3.92871 25.5371 7.76172 36.0762q11.4561 31.5049 22.6084 45.5059q8.67676 9.7998 13.7578 21.2334v3.59375q0 12.915 -27.6738 36.7393q-19.6826 16.5752 -50.4795 31.9736
q-30.877 15.4385 -76.6592 24.5957q-60.9492 12.1914 -135.688 12.1914q-79.9805 0 -134.94 -15.2539q-38.4443 -9.89355 -62.9102 -23.8105q-26.001 -15.5996 -41.9648 -33.6934q-15.9648 -18.0928 -22.3037 -41.3359t-7.36035 -47.7451
q-1.02051 -24.502 -1.02051 -38.6611q0.0078125 -0.353516 4.00391 -86.2686l1.99609 -82.8232q-0.00683594 -35.8467 -4.50293 -50.8115q-4.49707 -14.9639 -4.49707 -23.0967v-5.22168q3.56543 -10.6973 11.1533 -14.4912q5.58301 -1.79297 6.42676 -1.79297
t0.919922 0.00585938q5.67773 0 13.0391 3.63477l25.3691 9.96582l51.3994 -14.2773q17.3252 -5.78613 33.6963 -13.4678q18.4551 -10.8555 25.0859 -10.8555q7.18652 0 22.1377 5.24512q14.9512 5.24609 22.4639 9.44336q8.56738 3.31543 18.8887 10.5137
q13.5889 8.21777 14.4199 18.2979v1zM554.696 561.277q4.91309 -20.8838 3.52344 -27.418q-2.75488 -2.35938 -7.71582 -2.35938t-19.3086 1.9082q-15.3799 2.89355 -26.8252 6.70898l-17.4902 5.83008l-7.79004 22.5039q-3.58984 10.7686 -3.58984 21.5488
q-0.0283203 0.657227 -5.17383 59.834q38.9854 -7.39355 55.084 -13.874l15.082 -5.55664zM781.655 286.483q11.124 0 22.2812 8.10254q10.3652 5.28809 24.374 16.2646q17.1807 10.7842 23.1846 20.3916q6.00488 9.60742 6.00488 20.7578q0 4.71289 -6.1084 17.459
q-5.14746 10.7422 -8.05273 28.0918l-7.99609 37.9844q-4.95215 23.7695 -11.9131 70.5q-13.6787 107.123 -33.501 151.845q-7.36816 18.8662 -21.8994 37.582q-13.8398 19.5352 -31.4688 26.5889q-12.2354 4.44922 -18.7178 4.44922t-9.98242 -1.68555
q-9.83301 -4.33203 -17.1279 -20.7158q-12.208 -27.4189 -35.2285 -52.998l-13.5078 -14.6064q-4.49609 -5.99609 -4.49609 -10.915t2.35254 -7.92676q2.8916 -5.19336 9.87891 -5.19336q7.78516 0 11.8584 1.50098l19.4102 7.16504q15.0273 6.57422 20.9355 8.61035
q5.36621 0.74707 7.06445 0.764648h3.00977q5.85352 -1.93359 13.3896 -13.6562q7.53613 -11.7236 13.2559 -39.3691l0.114258 -0.470703q7.90137 -28.6436 13.8389 -63.2783q5.94238 -34.668 7.92578 -59.9531q1.98242 -25.2861 4.96582 -58.1172v-12.6553
q0 -17.8467 -3.22461 -22.1533q-5.08887 -5.61035 -22.6318 -7.3457q-17.125 0.110352 -55.3486 9.91113q-67.3711 17.2744 -99.2549 31.4453q-19.4463 8.64258 -27.04 8.64258h-1.22168l-13.4072 -4.46875l-18.7871 -7.82812q-10.8799 14.8896 -19.9229 25.8291
q-11.9082 14.4053 -26.7227 29.4268q-16.3359 16.5645 -23.2139 22.3643l-15.7002 12.7568q-6.94727 6.91992 -14.1895 6.91992t-9.95215 -8.12988l-0.382812 -1.14844v-4.22168q0 -6.99219 5.05664 -15.8418q10.0664 -16.1055 27.9365 -44.8955
q7.90332 -14.8389 21.7051 -43.4258l26.9541 -59.8984q12.8174 -28.5928 21.708 -56.748q8.8916 -28.1543 14.835 -48.9307q3.97656 -20.8516 7.95605 -38.7695q2.84863 -15.2354 2.84863 -25.4902v-5q0 -14.498 4.72461 -20.7979q4.72363 -6.29883 17.3545 -7.70215h1.4209
q12.1006 0 34.7646 14.0098q22.9707 12.5518 33.3525 24.0967q10.3828 11.5439 10.3828 21.3936v3q0 7.25 -8.6543 17.2861q-14.9531 17.3398 -27.9482 47.6631q-0.18457 0.397461 -19.1602 38.3477q-13.0947 27.1953 -21.1836 41.3506l-16.5967 29.7354
q17.6875 -2.64258 32.0518 -5.17969q14.3652 -2.53711 44.0557 -10.4541l60.1699 -14.04q39.3877 -9.84961 60.874 -18.6309q27.8896 -9.59473 32.5469 -9.59473z" />
</svg>