<!--Credit: 全字庫正楷體 https://www.cns11643.gov.tw/-->
<svg height="100" width="100" xmlns="http://www.w3.org/2000/svg">
  <circle r="48.5" cx="50" cy="50" stroke-width="3" stroke="#000" fill="#fff"/>
  <circle r="43.5" cx="50" cy="50" stroke-width="3" stroke="#d00" fill="none"/>
  <path fill="#d00" transform="translate(15,11.5) scale(0.07,0.07)"
d="M262.469 231.026q0 -0.520508 0.03125 -1.02637v-2q0 -9.04688 7.61523 -14.2734t16.0635 -5.22656t21.7373 2.21484q12.21 4.44043 26.7148 12.7217l22.9131 12.3379q42.79 -16.21 72.9746 -28.8682q30.1855 -12.6582 60.8027 -29.4434q27.334 -15.874 54.9756 -34.4883
q27.6416 -18.6133 35.4521 -28.0566t19.1602 -15.9082q3.09082 -1.00977 6.09082 -1.50977q6.59375 0 21.1533 6.4707q14.5586 6.4707 32.6396 19.3848q20.0225 14.3008 32.7363 27.5791q12.9707 14.1504 12.9707 26.0654v3.05566q-3.35938 11.7588 -13.1533 17.6572
q-10.4678 5.2334 -23.2764 6.47266q-12.8086 1.24023 -65.1484 15.0654l-67.9385 17.9834l-72.9033 19.9727l-98.0049 28.2705l10.5723 107.479l246.876 -51.3115q34.4912 -6.89844 54.8447 -14.0215q20.3525 -7.12402 29.459 -7.12402q9.10547 0 24.8818 4.19238
q15.6357 3.15137 30.3926 9.47559t23.6133 13.9941q10.8066 7.50586 10.8066 15.1592q0 0.338867 -0.0214844 0.678711q0 7.16895 -6.16211 12.334q-4.38672 4.93848 -30.5654 7.12793l-123.127 14.9746l9.53223 4.7666q16.8535 7.39746 25.7832 16.1572
q14.5391 11.4238 14.5391 23.6396v3q0 5.5332 -6.81152 15.3926q-6.81055 9.85938 -11.4551 25.5996l-29.2588 114.29l143.052 -16.7197q13.8398 -1.98047 35.625 -5.94141l0.108398 -0.0185547q24.6133 -4.10254 37.5791 -4.10254t47.0967 12.4033
q36.9141 11.958 46.8096 25.9443q7.25488 10.8828 7.25488 18.1523v4.22168l-0.382812 1.14844q-3.58887 10.7656 -24.3789 12.0986q-15.2666 2.01758 -38.4072 3.02441q-0.157227 0.00488281 -44.1572 1.00488h-0.431641l-58.8701 -1.99805
q-14.8965 0.00878906 -60.46 1.98926q-46.1787 3.00781 -121.153 4.00781q-74.9756 1 -123.794 3.98828q-48.7705 2.98633 -97.5459 8.95898l-0.150391 0.0166016q-48.7637 4.97559 -90.8281 11.9043q-42.0635 6.92871 -49.6055 8.02051q-83.7832 18.1143 -97.335 18.1143
h-2q-10.3105 0 -28.6348 -9.93945l-26.9492 -14.9717q-11.9502 -6.51855 -17.9326 -12.501q-5.9834 -5.9834 -5.9834 -13.0879v-2.74902l0.145508 -0.727539q2.09766 -10.4863 19.0098 -12.0234h16.0527q62.499 -4.80762 163.693 -10.9775l64.0352 -6.22559
l-38.8467 -265.132q-14.2998 -91.5195 -23.1816 -109.575q-6.93945 -10.8574 -6.93945 -18.5635zM586.5 469q0 -5.42285 -1.83008 -23.251q-1.93359 -18.8232 -3.82324 -23.4912l-4.03906 -12.7881l-131.498 21.917q-43.6152 8.11328 -51.3096 8.11328h-1.59473
l-9.85938 -1.55664l20.1045 180.028l170.521 -12.9736l13.3281 -131.383v-4.61523zM133.08 956.628q-2.65039 -2.26074 -2.65039 -4.59473q0 -2.33496 0.0703125 -3.0332q0 -5.92578 7.20605 -11.1484q39.7861 -27.8506 67.5762 -49.6816l66.8105 -55.8418
q38.4111 -34.4805 54.9697 -55.9082q16.4463 -21.2842 20.0801 -29.46q3.59668 -8.09277 5.73438 -22.5938q2.13672 -14.5 8.38086 -19.1836q6.24414 -4.68262 17.3691 -4.68262q11.126 0 22.6025 6.69629q11.5898 4.35449 32.5986 17.3525q22.3496 12.7842 29.3477 23.1953
q6.32422 8.89746 6.32422 17.2559q0 2.78809 -1.50879 5.79297q-2.41309 7.08496 -18.2041 13.1719q-18.0391 7.53516 -47.1289 29.9111l-33.9512 26.9609q-26.4072 21.3301 -70.833 47.585q-49.6064 30.707 -69.834 40.4355q-43.6201 19.3867 -78.4365 31.8213
q-2.80957 1.82129 -7.61328 1.82129q-4.80469 0 -8.91016 -5.87207zM561.5 735v-1.92871q3.00195 -12.0088 15.5 -13.5713q5.46777 0 13.6279 3.46582l33.5859 10.8662q17.4922 5.15918 50.3711 20.333q32.8789 15.1748 59.5791 30.5791q26.7002 15.4033 43.5645 36.4121
q18.7031 20.9482 25.3887 39.4736q2.12891 6.38672 8.30566 38.2402q0.577148 5.12988 1.07715 11.1299q0 14.0791 -6.07324 23.8682q-8.73926 14.9033 -23.7441 17.6318h-3.68262q-12.4297 0 -30.251 -13.3154q-19.709 -12.4902 -32.3457 -27.1924
q-17.1768 -18.5098 -34.6562 -40.3311q-17.4805 -21.8223 -47.3818 -54.7139q-28.7412 -32.7051 -41.4072 -44.3965l-22.1328 -20.1211q-9.3252 -9.3252 -9.3252 -16.4297z" />
</svg>