<!--Credit: 全字庫正楷體 https://www.cns11643.gov.tw/-->
<svg height="100" width="100" xmlns="http://www.w3.org/2000/svg">
  <circle r="48.5" cx="50" cy="50" stroke-width="3" stroke="#000" fill="#fff"/>
  <circle r="43.5" cx="50" cy="50" stroke-width="3" stroke="#000" fill="none"/>
  <path fill="#000" transform="translate(15.5,13) scale(0.07,0.07)"
d="M654.079 446.854q3.71973 -1.35938 4.29199 -1.35938q0.571289 0 0.628906 0.00585938q5.25586 0 12.9668 5.13086q12.7109 7.44238 21.1406 15.8721q8.43066 8.43066 16.6318 18.667q6.16895 10.8721 11.9863 19.5303q5.81738 8.65723 5.81738 14.248
q0 0.53125 -0.0429688 1.05176q0 6.61914 -3.66309 10.7354q-3.53418 4.81738 -8.45996 6.22949q-4.9248 1.41309 -13.9043 2.53516q-7.6875 0 -12.752 1.76074q-16.2588 5.65332 -50.3213 23.4258l-73.0537 37.0264l15.9043 13.9336l52.0527 51.0508
q13.5791 13.5801 37.8604 33.4141q47.5635 38.8516 94.0791 62.124q67.0625 30.9443 96.293 36.4219l37.9326 7.98535q16.0713 2.96484 17.9297 14.1172l0.102539 0.613281v1.62695q0 10.2021 -11.8115 15.0029q-26.4883 10.1875 -53.2354 16.3604l-43 7
q-26.6074 6.13672 -33.4531 6.13672h-7q-17.7559 0 -29.1367 -4.68652q-14.1367 -6.52441 -37.6934 -29.0566q-25.7764 -24.6562 -32.958 -32.9883l-32.9229 -39.9072l-44.1377 -50.1689l-44.958 -55.9473q-9.23828 -11.084 -17.4102 -20.2402
q6.22852 16.043 11.9727 51.4639t5.74414 70.0312q0 69.3896 -15.2715 121.01q-7.29883 28.0723 -22.9023 52.0186q-16.5918 26.5264 -34.3594 38.3359q-17.8164 11.1357 -27.9668 11.1357h-1q-8.10449 0 -10.5137 -2.40918l-6.78906 -5.78809
q-3.375 -3.375 -18.5977 -23.6719l-27.8164 -33.7773q-16.5938 -19.5225 -18.2402 -22.1709q-13.8047 -12.7754 -26.6416 -22.7598l-0.704102 -0.620117q-6.23242 -4.93457 -6.23242 -11.3389q0 -0.477539 0.0351562 -0.963867q0 -4.10449 3.69727 -7.80273
q3.69824 -3.69727 9.625 -3.69727t11.998 1.21387q10.335 3.10059 10.8945 3.29297l18.6318 7.28027q5.09277 2.54688 17.9785 5.3252q14.7783 1.86621 16.6748 1.8877h3q5.73047 0 13.2363 -5.00391q10.1729 -5.08691 15.1982 -15.1377q6.73535 -10.9443 13.9004 -40.6162
q7.16504 -29.6709 7.16504 -51.7422v-5.87305l-1.45605 -43.6758q-11.9971 10.6621 -28.166 24.2451q-24.1709 21.1455 -47.3623 38.291q-22.4395 17.3271 -65.4248 41.0947q-42.9844 23.7686 -80.5234 36.9668q-37.2705 14.0986 -63.6689 20.2119
q-24.0625 7.01074 -34.7148 8.15723q-19.0498 4.08203 -20.1836 4.08203q-9.43359 0 -14.7061 -6.62109q-2.29395 -2.87891 -2.79395 -6.87891q0 -9.17676 13.7188 -14.9668l10.3535 -4.1416q6.61426 -1.89453 22.9238 -10.5283l68.1572 -33.0762
q71.8369 -35.918 146.493 -101.004q39.5479 -33.6152 57.1045 -54.0986l23.4082 -27.9092q-5.66797 -18.6279 -8.30078 -22.79l-5.1748 -9.83301l-24.0684 24.8311q-15.2734 14.2549 -53.6592 43.5488q-39.4424 28.3174 -66.8213 43.5283q-27.5244 15.291 -63.4229 28.4365
q-40.2979 14.7568 -56.6104 18.5791q-16.3135 3.82227 -33.1289 5.92383h-3.47266q-8.53125 0 -12.832 -5.76172q-2.16797 -2.73828 -2.66797 -6.73828q0 -7.97754 8.57227 -10.9473l9.91406 -5.40723q5.875 -4.18652 24.8379 -12.3086q18.9619 -8.12305 41.6523 -19.959
q21.666 -11.8252 59.2188 -37.5186q36.7275 -25.8086 67.7959 -51.9463t44.6387 -42.5811l14.748 -19.1729l-22.7842 -13.4023l-68.459 42.8037q-18.2939 10.1631 -44.5557 21.2812q-25.0742 12.0273 -39.5605 16.2393q-14.2588 6.06934 -37.2402 13.0664l-12.4561 4.12891
q-4.89355 1.22363 -7.82227 1.22363q-8.63574 0 -11.7129 -6.15332q-1.78711 -3.5752 -1.78711 -6.34668q0 -7.45215 7.8623 -11.5645l9.38574 -5.63086q5.76074 -4.44238 28.7285 -16.4268q43.4609 -23.7129 90.9512 -59.3223q23.6338 -18.7139 39.3564 -33.4443
q15.4482 -15.4521 19.2881 -20.2061l7.99316 -10.6572l-58.1055 4.46973q-11.4453 15.2578 -12.7539 16.4512t-2.67773 2.0127q-1.36914 0.818359 -3.52832 0.818359q-2.22168 0 -9.37012 -2.38281q-9.2041 -3.06836 -14.4766 -16.0381l-5.51465 -11.0303
q-4.95703 -6.26465 -5.11719 -9.2334l-14.8203 -79.0381l-5.69922 -18.999q-3.29004 -6.51074 -5.71094 -9.88281l-11.1045 -11.1045q-8.68652 -6.14648 -8.68652 -15.2871q0 -9.13965 8.15332 -13.2168q6.89941 -3.44922 16.1406 -0.589844l28.9111 4.98535
l16.0186 4.71094l139.803 -13.5918l54.1709 -56.1045q23.46 -23.459 29.8594 -33.0273q-2.85449 0.235352 -6.48828 0.754883l-0.129883 0.0166016q-7.59473 0.949219 -28.7207 5.97949t-39.7959 6.06738l-0.421875 0.0117188h-12q-12.9727 0 -19.5508 -1.16113
l-15.6914 -3.30273l-32.2256 23.9385q-18.4414 14.335 -38.9258 25.6016q-20.3623 11.1992 -32.9355 15.4404l-14.3008 6.10059q-9.34766 2.38574 -10.3291 2.38574q-0.982422 0 -1.04102 -0.00292969q-7.63574 0 -10.7129 -6.15332l-0.787109 -1.5752v-3.77148
q0 -6.53125 6.54883 -11.6533l8.8916 -8.8916l30.2627 -25.2188q11.5498 -9.625 35.1289 -36.1465q43.502 -51.416 55.2119 -71.9092q7.27246 -11.8174 9.13965 -23.9531q4.75781 -14.2734 9.48438 -19.001q4.72754 -4.72656 14.0391 -4.72656t19.5049 4.49707
q20.7725 6.99219 36.7822 18.999q9.69141 7.26855 12.3486 13.9121q2.65723 6.64453 2.65723 12.0918v0.928711q-1.29785 5.19141 -5.82324 8.68457q-4.52539 3.49414 -13.8975 8.03906q-9.00781 4.36816 -15.6367 10.8047l-16.2344 15.3066l26.7432 -5.14258
q21.1963 -3.85352 58.4688 -19.5479l24.3193 -10.124q12.2354 -4.44922 19.5605 -4.44922h4q15.874 0 40.584 12.9111q13.1924 7.19629 21.3389 16.9902q8.57715 11.0273 8.57715 17.5986v0.626953l-0.102539 0.613281q-1.69141 10.1475 -20.5303 17.6924
q-13.0146 5.58789 -22.2393 12.9678l-28.1787 22.1406l-25.8848 17.9199l-44.1709 37.4492q96.9443 -16.4297 124.657 -28.3076q12.002 -4.5625 22.2002 -6.60254h0.749023q9.36426 0 18.2646 3.33789t23.3535 11.5908q32.3076 17.2422 44.0781 30.6943
q7.80371 9.10449 7.80371 16.877v1q0 7.10449 -8.40332 15.5078q-5.23828 4.49023 -13.2373 15.1719q-7.52832 9.41113 -11.3594 15.0928l-35.7256 71.4512q-10.7754 23.6729 -21.4395 30.8984q-10.3408 7.71875 -18.335 8.37793h-3q-8.76953 0 -12.1523 -2.25488
q-8.14453 -5.42969 -11.9131 -15.7246l-3.09961 -8.67871l-137.459 8.7002q3.31641 4.27246 5.71973 8.06445q6.43848 6.89453 6.43848 14.3154q0 0.538086 -0.0341797 1.07812v2.44727q-3.39941 8.49902 -12.4258 14.5166l-16.9326 4.2334
q-4.05664 1.47168 -11.3486 7.01465q16.0723 5.73438 41.1738 21.4238l0.661133 0.463867q14.7412 11.582 26.3115 27.3193l11.498 14.1504l20.1924 6.40527q10.0234 3.75879 16.0498 8.16602l10.2041 8.16309q27.1826 -22.877 39.4258 -34.1787
q10.1953 -9.41113 26.0156 -27.6172t23.8457 -29.0703q7.20996 -9.76074 10.8623 -20.2188q4.28906 -10.7217 7.08105 -14.9111q2.79297 -4.18848 7.96484 -5.4541zM410.578 400.949l0.832031 -74.8789l-122.162 8.85156l7.48047 73.1426zM549.421 382.5h3.5791
q12.3447 0 29.5742 6.4541l6.98145 2.49316l19.3682 -51.9404q5.40039 -16.2373 5.57129 -25.0264q-0.75293 -5.01465 -4.55566 -8.93262q-6.25684 -5.04785 -18.9395 -5.04785q-5.71582 0 -51.9492 5.92773l-65.6895 10.0352l-1.67285 76.9453l51.2383 -6.83203z" />
</svg>