<!--Credit: 全字庫正楷體 https://www.cns11643.gov.tw/-->
<svg height="100" width="100" xmlns="http://www.w3.org/2000/svg">
  <circle r="48.5" cx="50" cy="50" stroke-width="3" stroke="#000" fill="#fff"/>
  <circle r="43.5" cx="50" cy="50" stroke-width="3" stroke="#000" fill="none"/>
  <path fill="#000" transform="translate(13,12.5) scale(0.07,0.07)"
d="M751.5 154q0 5.26953 -3.66895 10.7734q-5.25684 5.25684 -19.1992 8.54785l-18.2432 4.05469l-98.3672 15.0557l-48.457 6.60742q2.65039 2.9834 4 6.1377q2.02051 2.3418 2.02051 4.65723q0 2.31445 -0.0849609 3.16602q0 6.42285 -4.48047 17.6484
q-4 11.2344 -4.58105 20.3193l-2.66211 20.627l64.6689 -12.9336l27.7256 -6.16113h0.829102q10.9756 0 30.9111 5.24609l19.459 5.13672q13.4512 4.4834 20.6816 11.5664q8.44824 7.11719 8.44824 14.5508v1.92871q-2.00977 8.04004 -9.49219 12.6709t-17.9082 5.82422
l-22.1094 4.01172l-53.1006 7.01172l-69.7559 8.26074l-3.125 55.4805l62.5137 -9.55078q4.29492 -1.05566 18.1533 -4.02539q14.3213 -2.0459 22.8516 -3.1123q15.3682 0 29.0293 3.66602q13.6602 3.66602 26.1846 7.84082q12.5947 5.72461 17.5615 10.6904
q6.69727 7.30273 7.19727 13.3027v0.749023q-2.00391 10.0215 -17.877 15.8066q-15.8721 5.78418 -24.7334 6.8916l-145.557 17.2373l-1.62207 64.083l145.943 -13.2598q47.3525 -2.15234 83.3486 -11.7383q14.9482 -4.26953 20.9971 -4.26953q13.2432 0 35.3467 10.7871
l31.9297 15.9648q20.168 9.56348 29.1807 19.6006q10.0654 9.68848 10.0654 19.2412q0 0.453125 -0.0224609 0.90625v2.74902q-1.47266 7.36426 -11.3291 20.5215q-8.29102 12.9814 -13.9238 31.6797q-4.82812 20.3633 -6.77148 43.6797l-11.0107 103.1
q-6.85645 70.8457 -34.6641 130.436l-0.178711 0.356445q-17.1328 32.124 -33.1689 49.626q-17.6377 18.6748 -39.9385 33.0137t-32.96 14.3389t-15.8574 -5.19727q-3.00488 -3.00586 -10.209 -19.4717q-7.20312 -16.4648 -11.0049 -23.1182
q-3.75586 -6.57324 -22.5166 -31.2588q-17.3496 -24.0957 -20.9736 -29.9023l-12.9971 -14.0576q-4.49609 -5.99609 -4.49609 -11.5859q0 -5.58887 4.75 -8.74902q7.99512 -5.31836 17.3555 -2.19824l22.0273 9.01172l37.8955 12.9639q13.7842 5.16895 20.7266 5.54199
q7.60156 -1.93945 17.9648 -12.3027q10.3643 -10.3643 18.9707 -32.3584t13.5205 -44.5996q4.91406 -22.6045 8.87793 -43.3975l13.9111 -110.297v-39.5234q0 -15.6143 -2.61914 -20.6309q-5.19727 -5.02734 -30.0088 -5.86914q-23.8545 0.00585938 -73.5674 1.99414
q-49.8369 1.99316 -95.6475 5.97754l-0.152344 0.0117188q-44.7373 2.98242 -95.4775 9.94629l-0.125977 0.0166016q-49.7373 5.96875 -75.3672 10.8975q-25.6289 4.92871 -49.1641 12.7734l-0.547852 0.15918q-23.0322 5.75879 -37.2061 13.2959
q-15.6289 8.92773 -22.6162 8.92773h-3q-7.99219 0 -17.043 -5.17188q-8.72852 -6.23438 -17.5273 -22.709q-10.2031 -17.8584 -11.6426 -21.5576q-2.28711 -8.00586 -2.28711 -13.1387q0 -5.13184 2.73047 -10.251q2.72949 -5.11914 8.36035 -13.5781
q8.21582 -14.8115 12.9717 -47.0742q3.9834 -34.8604 5.97461 -54.7734q1.98145 -19.8105 4.95605 -80.2969q2.97461 -60.4854 3.00684 -80.5322q-1.9668 -17.7334 -3.93262 -38.3477q-3.68066 -19.2061 -7.13672 -26.4307l-10.5479 -17.2686
q-2.38281 -7.14844 -2.38281 -13.6133q0 -6.46582 4.94043 -9.7666q5.72852 -5.19531 16.0869 -6.49023q15.9902 0 36.335 8.56641l27.1602 11.2383l122.039 -15.7461q23.8262 -2.97852 82.6172 -12.9424l74.7178 -13.9473l28.1152 -7.0293
q13.9092 -2.13965 21.3506 -2.13965t22.5117 5.38281q15.0703 5.38184 23.9463 11.9844q12.1797 8.125 12.1797 16.1328v2zM348.027 537.476q0.464844 0.0244141 3.40527 0.0244141q2.3418 0 128.148 -19.9199l0.813477 -64.2695l-60.7891 6.16699
q-25.3018 2.02441 -35.6055 2.02246h-5q-9.1709 0 -22.2148 -4.33105l-4.83203 -1.38086l-4.45312 74.2119q0 4.35645 0.527344 7.47559zM359.858 342.251l-4.73438 66.2783l125.376 -14.2266v-54.3936l-106.148 5.63574zM479.5 261q0 -12.3428 -1.8877 -25.6748
q-2.40723 -11.1426 -5.3252 -16.9785l-3.81055 -7.62207q-19.6328 0.981445 -36.3965 2.37891q-16.7637 1.39648 -26.0801 1.39648l-30.6318 -1.77246q-2.73535 5.31934 -4.06348 9.09473q-0.970703 6.3457 -2.83594 26.8643q-0.0117188 0.120117 -5.01367 46.8037
l116.045 -13.1865v-21.3037zM451 633.5h2.68262l22.9824 4.17871q52.1504 14.2227 67.3389 33.8271q10.2627 13.6846 12.4961 37.1328v7.36133q0 18.8496 -10.041 30.1455q-13.3545 13.3545 -23.8828 13.3545t-22.5 -11.8223q-12.8633 -9.81055 -24.3838 -28.6172
l-16.8496 -24.7793q-10.6699 -14.9385 -12.7002 -19.2412l-7.76855 -17.4795q-5.28613 -8.50879 -0.87793 -17.3242q4.49023 -6.73633 13.5039 -6.73633zM581.286 637.881q-4.78613 -5.03711 -4.78613 -10.1006t2.29395 -8.05273q3.9502 -7.25781 13.0117 -7.25781
q0.586914 0 1.19434 0.0302734h0.928711l46.0469 11.2637q55.5391 15.1465 71.3271 30.9336q5.50879 5.50977 10.9277 22.2783q4.2207 16.7549 -0.166992 33.9277q-4.38672 17.1719 -14.1387 24.7705q-7.71484 7.48438 -18.4521 8.82617h-1.47266
q-10.7021 0 -25.6748 -12.6328q-8.66211 -6.55566 -21.0508 -22.0205l-25.8809 -28.8672q-16.2061 -18.2314 -22.5195 -27.6494zM188.553 622.5h3.44727q10.0107 0 13.9189 10.5654l6.19824 12.5645q4.18457 12.5537 6.28027 25.1299q2.10254 12.6133 2.10254 34.3008
q0 21.6885 -4.14062 41.3604t-13.3008 45.1172q-9.36328 24.6494 -22.1621 42.1016q-13.4199 15.8604 -25.8965 15.8604h-3q-12.082 0 -21.0039 -11.0059q-7.03027 -9.37402 -10.2627 -25.5518q-3.2334 -16.1787 -3.2334 -28.0879q0 -11.9102 2.28711 -19.916
q2.32129 -8.12207 9.89648 -18.9912q19.1719 -32.4443 26.5059 -47.0986q5.70703 -13.3057 9.64941 -21.293l3.875 -19.376l6.05469 -20.1797q2.9541 -11.5684 11.4502 -14.9668zM288.692 650.088q1.86133 -1.68457 4.10156 -1.68457q6.74902 0 12.0283 1.32031
l11.7324 2.93262q6.88379 1.22266 23.4453 8.46875q16.6309 7.27637 31.2041 17.6621q15.8506 10.2422 21.0732 23.0039t5.22266 31.209v5q0 15.1064 -6.09863 24.9092q-7.94238 13.1826 -22.0225 14.5908q-12.6289 0 -24.3584 -9.89355q-9.81152 -8.7207 -20.5215 -25.8574
l-16.0537 -30.1016l-15.2461 -25.4824l-7.31641 -15.7949q-2.38281 -7.14844 -2.38281 -12.6797t5.19238 -7.60254z" />
</svg>