<?xml version="1.0" encoding="UTF-8" standalone="no"?>
<!--Credit: 全字庫正楷體 https://www.cns11643.gov.tw/-->

<svg
   height="100"
   width="100"
   version="1.1"
   id="svg2"
   sodipodi:docname="chiweg.svg"
   xml:space="preserve"
   inkscape:version="1.3.2 (091e20e, 2023-11-25, custom)"
   xmlns:inkscape="http://www.inkscape.org/namespaces/inkscape"
   xmlns:sodipodi="http://sodipodi.sourceforge.net/DTD/sodipodi-0.dtd"
   xmlns="http://www.w3.org/2000/svg"
   xmlns:svg="http://www.w3.org/2000/svg"><defs
     id="defs2" /><sodipodi:namedview
     id="namedview2"
     pagecolor="#ffffff"
     bordercolor="#666666"
     borderopacity="1.0"
     inkscape:showpageshadow="2"
     inkscape:pageopacity="0.0"
     inkscape:pagecheckerboard="0"
     inkscape:deskcolor="#d1d1d1"
     inkscape:zoom="4"
     inkscape:cx="28.875"
     inkscape:cy="27.875"
     inkscape:window-width="1920"
     inkscape:window-height="1001"
     inkscape:window-x="-9"
     inkscape:window-y="-9"
     inkscape:window-maximized="1"
     inkscape:current-layer="svg2" /><circle
     r="48.5"
     cx="50.190598"
     cy="50"
     stroke-width="3"
     stroke="#000000"
     fill="#ffffff"
     id="circle1" /><circle
     r="43.5"
     cx="50"
     cy="50"
     stroke-width="3"
     stroke="#d00"
     fill="none"
     id="circle2" /><g
     id="g3"
     transform="translate(0.97227182,-0.35355339)" /><g
     id="g4"
     transform="translate(135.5,-47.5)"><g
       id="g2"
       transform="translate(-36.402728,10.521447)"><path
         fill="currentColor"
         d="m -49.809232,89.028303 c 0.653333,0 1.61,0.28 2.87,0.84 1.166667,0.466667 1.913333,0.956667 2.24,1.47 0.272435,0.608351 0.183684,1.654258 0,2.45 -0.483936,2.096471 -4.082151,-0.463343 -5.04,-1.33 -0.650158,-0.58826 -1.12,-2.193333 -1.12,-2.38 0,-0.653333 0.35,-1.003333 1.05,-1.05 z"
         id="path1"
         style="stroke-width:0.07"
         sodipodi:nodetypes="cccsssc" /><path
         fill="currentColor"
         d="m -49.819089,90.938861 c 0.653333,0 2.692757,2.183825 3.952757,1.623825 1.213542,0.142705 1.646733,2.444959 1.125533,-3.784832 -0.02588,-0.641496 -0.115525,-1.404688 -0.140165,-2.583368 -0.217083,-2.442295 -0.388125,-4.565625 -0.388125,-6.385625 V 62.868856 c -0.04667,-1.96 -1.030417,2.43041 -1.26375,0.98375 -0.373333,-1.21334 0.30125,0.8675 -0.53875,0.8675 -0.373333,0 0.496667,-3.5425 -0.39,-2.0025 -0.606667,1.30666 -0.785,2.21625 -0.785,2.91625 0,0.51333 0.799532,-2.255937 -1.214687,-1.925 0.513332,2.61333 0.762187,5.36666 0.762187,8.260008 v 10.569997 c 0,1.82 -0.35,3.47667 -1.05,4.97 -0.746667,1.4 -1.12,2.111299 -1.12,2.38 0,0.65333 0.35,1.00333 1.05,1.05 z"
         id="path1-4"
         style="stroke-width:0.07"
         sodipodi:nodetypes="ccccsccscscsscsc" /></g><path
       fill="currentColor"
       d="m -86.934884,73.750258 c -0.131976,-1.879369 -0.06331,-1.892426 -0.03613,-1.986801 0.351297,-1.219902 1.024194,-1.632175 1.864194,-1.632175 0.142644,0 2.651061,0.239253 2.860534,0.204646 9.502337,-1.569897 -1.518422,1.153759 -0.970534,2.105354 0.606667,1.30666 1.061471,-0.364437 0.863125,0.306875 0,0 0.05197,0.09393 -0.02001,0.119214 -0.231181,0.08121 -0.280166,0.587124 -0.285022,0.948449 -0.0056,0.418514 -0.213008,0.933861 -0.294424,1.17425 -0.15418,0.455232 -0.193667,0.442462 -0.193667,0.442462 -1.180955,0.861686 -2.958474,3.914769 -3.15315,2.44477 -0.51854,-3.915504 -0.429768,-2.187165 -0.634912,-4.127044 z"
       id="path1-4-2"
       style="stroke-width:0.07"
       sodipodi:nodetypes="sssscsssscsss"
       transform="translate(0.97227182,-0.35355339)" /><path
       fill="currentColor"
       d="m -82.405438,70.241347 c 4.76,-0.79333 8.82,-1.84333 12.18,-3.15 2.473333,-0.98 3.99,-1.47 4.55,-1.47 1.12,0 2.496667,0.58333 4.13,1.75 1.353333,1.02667 2.03,1.86667 2.03,2.52 0,0.23333 -0.233333,0.86333 -0.7,1.89 -0.7,1.72667 -1.05,4.9 -1.05,9.52 0,11.34 -0.04667,17.71 -0.14,19.110003 -0.233333,1.86667 -0.723333,2.8 -1.47,2.8 -0.746667,0 -1.423333,-0.39666 -2.03,-1.19 -0.7,-1.12 -1.05,-1.84333 -1.05,-2.170003 0,-1.77333 0.14,-3.94333 0.42,-6.51 0.09333,-2.24 0.14,-4.31666 0.14,-6.23 v -12.25 c 0,-2.75333 -0.63,-4.13 -1.89,-4.13 -0.793333,0 -3.173333,0.25667 -7.14,0.77 -4.106667,0.65333 -6.766667,1.05 -7.98,1.19 -1.417045,1.753557 -4.28221,-2.363448 0,-2.45 z"
       id="path1-6"
       style="stroke-width:0.07"
       sodipodi:nodetypes="ccscscscscscsssccc" /></g></svg>
