<!--Credit: 全字庫正楷體 https://www.cns11643.gov.tw/-->
<svg height="100" width="100" xmlns="http://www.w3.org/2000/svg">
  <circle r="48.5" cx="50" cy="50" stroke-width="3" stroke="#000" fill="#fff"/>
  <circle r="43.5" cx="50" cy="50" stroke-width="3" stroke="#d00" fill="none"/>
  <path fill="#d00" transform="translate(13,12.5) scale(0.07,0.07)"
d="M308.752 430.752q-78.8809 7.74805 -96.585 7.74805q-17.7031 0 -25.166 -1.06641q-16.3496 -2.17969 -31.0947 -10.1191t-17.8535 -16.458q-1.65039 -3.10059 -1.65039 -4.88574t0.0976562 -2.4707q0 -4.90234 3.27246 -9.4834q3.27148 -4.58105 9.15039 -6.23242
q5.87891 -1.65234 15.4346 -2.25879l28.2373 -3.02539q12.8174 0 133.905 -18.9199v-141.58q0 -23.3057 -2.375 -36.1279q-2.40527 -12.9912 -5.81152 -23.209q-3.40527 -10.2178 -8.50195 -24.4863q-2.31152 -9.24805 -2.31152 -14.8232t1.48047 -10.0176
q4.59082 -10.7109 17.0908 -13.8359h4.92871q11.2119 0 23.5645 5.90039l24.2471 13.1338q32.8525 21.1201 34.1621 36.8359q0.0976562 1.1709 0.0976562 5.0957q0 3.92578 -2.93848 11.874q-5.56641 19.5254 -9.59961 44.3975q-4.0332 24.873 -4.0332 34.2627
q-0.0205078 0.555664 -7.24805 99.0361l19.6504 -5.24023l19.0361 -6.00879q15.0059 -4.28711 23.5615 -4.28711q8.40234 0 26.1289 4.29785q17.7266 4.29688 29.2988 13.4326q11.5723 9.13672 11.5723 18.7695v1q0 10.1562 -10.3926 16.6523
q-10.3926 6.49512 -26.6611 8.7207l-35.1143 9.00879l-39.2256 7.03711l-20.8105 3.08301l-2.61426 81.917l25.8389 7.51562q14.5693 5.20312 34.0996 15.9961q19.7236 10.9004 33.6494 23.2188q13.9248 12.3184 18.5879 22.8105q5.18164 11.6592 5.18262 28.3887
q0.00195312 16.7305 -7.05078 26.3467q-7.57617 10.3311 -20.9092 10.3311q-13.334 0 -25.3799 -9.85547t-28.5117 -30.4316l-37.1035 -44.5244l-5.58594 270.893l-1.00586 71.4492q-4.74902 35.6162 -19.9893 55.9375q-9.75488 13.0059 -17.5039 13.0059h-1
q-9.24707 0 -18.2578 -9.61133q-9.01172 -9.6123 -15.0127 -22.1592q-3.66309 -12.709 -9.92188 -29.5469q-5.80762 -17.1826 -6.05762 -29.1475q-0.25 -11.9639 5.30957 -34.2021t7.02637 -33.4854q1.4668 -11.2461 6.88965 -61.0332q5.42188 -49.7871 6.56152 -56.2119
l7.45996 -140.081l-7.54883 11.8164q-10.2246 18.3516 -33.4551 50.6729t-44.6289 54.2285q-21.4561 21.9668 -43.4854 37.8486q-40.2363 29.0078 -86.8945 49.2939l-22.8223 9.92285q-5.43457 2.69531 -9.66211 2.69531q-7.90723 0 -10.6172 -8.12988l-0.382812 -1.14844
v-3.22168q0 -8.10449 7.55664 -15.6611l21.2178 -16.166l36.6973 -31.7383q17.8135 -16.8379 50.5352 -52.0381q32.585 -35.0547 50.3584 -61.7148t41.6533 -66.457l28.7939 -50.6367zM807 248.5h3q10.6797 0 22.1475 5.68848q14.6748 6.31641 28.0908 16.1211
q13.416 9.80371 28.8389 23.0234q15.4229 13.2188 15.4229 23.667q0 3.07715 -6.27832 13.542q-6.2793 10.4639 -10.0967 23.8252t-5.25391 21.0215q-1.40332 7.48535 -2.37109 22.8496v35.96l-4 153.9q0.0117188 25.5957 5.9541 80.0654l8.99609 80.9688
q3.0498 26.4307 3.0498 40.8672q0 23.5283 -7.46289 41.1191q-7.46289 17.5918 -20.1123 34.9844t-23.1523 24.3945t-20.7725 7.00195h-1.05566l-1.00586 -0.287109q-10.4521 -2.98633 -16.8369 -18.2656l-26.6934 -60.751q-58.499 7.88672 -129.941 11.29l-47.1426 3.55762
l-4.00586 21.6328q-4.19336 15.375 -15.2568 18.5361l-1.00586 0.287109h-3.05566q-9.74121 0 -19.8115 -13.7412q-12.8574 -14.0625 -18.0225 -30.4102q-5.16602 -16.3486 -5.41602 -30.2148q-0.25 -13.8652 7.87109 -54.4902q1.97559 -11.9395 7.42285 -61.9629
q5.45117 -50.0527 6.46191 -65.0195l3.99414 -181.745q0 -34.4131 -0.958008 -41.5977q-6.44727 -48.3574 -14.2451 -63.9521q-7.79688 -15.5947 -7.79688 -22.3662v-2q0 -9.01367 7.11523 -13.7568t14.1523 -4.74316q14.2285 0 34.6143 7.38477l10.9912 3.38184
l115.899 -23.5674q45.751 -11.4414 62.9678 -18.8203q17.2178 -7.37891 24.7598 -7.37891zM760.98 757.567q13.4668 -2.06738 19.7549 -2.06738t8.87012 1.77539l11.3154 3.60059q0.788086 -17.6016 1.58594 -27.2676l1.00879 -49.0928l2.37793 -37.2568
q-32.7715 6.46875 -49.5791 9.12793l-51.0332 10.0059q-47.0215 8.10742 -71.7812 8.10742q-8.5 0 -23.416 -1.98828l-5.1748 103.492q27.3887 -1.72949 41.0879 -3.4375l56.1113 -8.01562zM723.142 600.731q22.8789 -6.23145 37.9443 -6.23145q15.0664 0 34.1289 6.33105
l11.2852 3.22461v-112.172q-34.7803 9.48828 -68.2969 14.5205l-51.917 8.98535q-33.6055 6.11035 -45.2861 6.11035h-12.9287l-11.9551 -2.98828l-4.26074 103.964q38.0625 -4.81152 69.458 -11.7852zM760.461 438.5h6.53906q13.4102 0 25.1006 3.29883l14.3994 4.19922
v-89.998q0 -20.0352 -3.22656 -25.7705q-6.03516 -10.7295 -36.2734 -10.7295h-7.52734l-55.7188 6.96484q-29.5098 2.95117 -47.0684 6.84473l-36.3486 8.6543l-3.58008 128.886l70.7344 -14.1973q29.6406 -5.92871 47.2393 -11.46q17.5996 -5.53125 25.7305 -6.69238z" />
</svg>