<!--Credit: 全字庫正楷體 https://www.cns11643.gov.tw/-->
<svg height="100" width="100" xmlns="http://www.w3.org/2000/svg">
  <circle r="48.5" cx="50" cy="50" stroke-width="3" stroke="#000" fill="#fff"/>
  <circle r="43.5" cx="50" cy="50" stroke-width="3" stroke="#000" fill="none"/>
  <path fill="#000" transform="translate(15,12.75) scale(0.07,0.07)"
d="M617.5 722v9l-0.0341797 0.71875q-2.36816 24.8633 -19.7529 34.7979q-8.7207 4.9834 -16.9883 4.9834q-9.2041 0 -17.2725 -3.8916q-14.8213 -7.98047 -27.8418 -29.6807l-44.8281 -72.7227q-4.28223 -5.8125 -4.28223 -11.333t3.68262 -9.62988
q3.53418 -5.7793 13.2256 -5.7793q7.09277 0 13.2822 1.22852q26.3271 6.0752 42.7461 12.2109q17.292 5.44336 30.2461 16.2393q12.9551 10.7959 21.8213 24.0947q5.99609 11.9922 5.99609 29.7637zM451.31 405.104q5.35645 -6.60449 25.6904 -6.60449h27.3691
q49.3301 -8.32422 88.4473 -20.6768l22.9102 -6.97266q5.74609 -1.35254 6.48535 -1.35254q0.740234 0 0.788086 0.00195312q7.53613 0 11.832 5.7627q2.73633 2.36426 2.73633 4.27832t-0.0683594 2.45898q0 6.60352 -8.0332 13.0303l-16.3145 11.2148
q-6.78418 4.52344 -42.5215 25.3457q-35.7363 20.8223 -37.9492 22.1836q-2.21387 1.3623 -7.58496 6.7334q-8.70801 7.46387 -16.3477 8.99219h-0.749023q-4.22168 0 -11.873 -2.55078q-5.18457 -2.5918 -16.4619 -11.6143q-7.89062 -9.8623 -18.3867 -17.4961
q-12.7783 -11.501 -12.7783 -19.8389v-4q0 -1.11523 1.40527 -4.18945q1.4043 -3.07324 1.4043 -4.70605zM820.368 531.679l31.7441 -5.1416q22.2051 -4.03711 32.1689 -4.03711t20.0791 4.3457q9.66895 2.29004 27.6523 10.7529t25.1621 19.1445
q6.3252 8.88672 6.3252 16.2568v4.77148l-0.787109 1.5752q-5.0293 10.0576 -19.4756 10.1523l-17.1885 1.00098l-148.363 0.951172q3.52832 143.47 4.80273 174.1q2.01172 26.1973 2.01172 42.4492v0.177734q-1.02441 44.0361 -10.3428 72.0732
q-8.64258 29.1064 -22.2812 46.1504q-14.0596 17.5713 -22.582 23.7471q-11.9307 8.35156 -20.2939 8.35156h-1q-9.73047 0 -22.8076 -17.7393l-31.9316 -34.9346q-15.6172 -18.5459 -23.3994 -26.3594l-16.875 -14.8916q-12.4863 -11.2373 -12.4863 -18.5752v-3
q0 -5.10449 3.19727 -8.30273q5.84766 -4.77637 22.6279 -2.08008l28.1924 5.03418l30.8525 7.23145q5.80371 1.93457 13.5898 -1.74023q5.18945 -4.42578 7.58105 -29.9277l4.99121 -47.9219q1.97656 -23.7471 2.96875 -57.4365l0.932617 -113.811l-78.168 5.4541
q-79.585 8.10742 -103.897 15.0537t-30.3682 6.94629q-14.2246 0 -32.7148 -6.50684q-18.2822 -7.11035 -28.7705 -13.3389q-13.6309 -6.2832 -16.6318 -15.2842l-0.382812 -1.14844v-5.22168q0 -4.22168 2.12305 -10.5908l1.88281 -1.41309
q5.99609 -4.49609 20.4941 -4.49609h32q13.5273 0 70.0137 -6.93555q57.2041 -8.02734 110.436 -12.0449l47.2031 -3.43262l-2.12988 -18.5049q-0.921875 -11.9795 -4.80762 -22.666q-1.87988 -11.2812 -7.52051 -20.6816q-4.19336 -11.5312 -6.59668 -18.7188
q-8.45117 5.87207 -17.4619 11.7412q-43.4688 29.3105 -82.0049 46.5596q-40.4346 19.1475 -73.1553 28.4199l-21.9141 5.97656q-8.00586 2.28711 -14.3301 2.28711q-6.3252 0 -10.4268 -3.62695q-5.8418 -3.58887 -5.8418 -9.00293q0 -0.429688 0.0185547 -2.36426
t2.32617 -4.81445q3.53516 -6.06641 15.1523 -11.5488l27.0908 -12.04q20.417 -8.75 54.0059 -30.4844q33.5898 -21.7334 63.3242 -44.5264q27.2109 -21.7715 49.4141 -42.6895q-2.64355 -1.47852 -7.31543 -5.21582t-19.04 -20.1533q-14.6611 -15.6338 -26.3623 -26.373
q-29.6348 -24.4834 -38.4297 -30.5527l-10.0186 -7.15723q-6.63184 3.91504 -10.0166 5.62891l-30.251 18.1504l-22.2852 9.11719q-5.44824 2.65332 -11.0762 2.65332h-3.74902q-9.31934 -1.86426 -12.9639 -9.15332l-0.787109 -1.5752v-2.77148
q0 -6.74902 11.0059 -15.0039l20.0654 -15.0479q14.6572 -10.749 27.3447 -22.46q38.3779 -35.4258 59.8994 -66.7295q10.4326 -15.1758 17.1543 -34.3809q5.68066 -16.2295 8.13965 -28.2148q2.45898 -11.9863 5.01465 -16.9375q4.50391 -8.72559 14.876 -8.72559
q3.74902 0 12.0938 1.66895q8.3457 1.66895 29.1895 12.0869q22.4131 10.6807 30.5264 20.999q7.69043 9.01562 7.69043 16.7451v3q0 4.88184 -4.08301 8.96582q-4.08301 4.08301 -11.3672 8.35449q-9.05664 6.40137 -18.2861 17.4766q-0.348633 0.390625 -7.26367 7.60645
l42.1113 -7.77441q11.875 -2.22656 35.2334 -9.81445q16.4883 -4.94629 35.1553 -13.6895q17.4287 -7.625 27 -7.625q9.44824 0.585938 25.0186 10.168l21.8125 13.8809q34.6689 19.3086 34.6689 39.4512v4.22168q-3.16113 9.4834 -22.1816 22.9102l-0.683594 0.428711
q-16.7422 9.30176 -33.8711 30.2363l-45.0557 54.0664q-29.2295 34.2695 -58.5928 62.6201q-12.4707 11.6387 -27.1289 23.2637q15.291 1.00391 32.2803 6.10059q21.1602 6.34863 30.6562 13.4707q10.5771 10.5771 10.5771 16.7402t-2.45215 13.5195
q-3.62695 9.06641 -4.58203 14.2744l-1 18.9971l-2.41992 13.9121l28.6543 -2.26172q3.4707 0 11.668 -1.82129zM339.935 180.521q-7.54395 -21.1221 -7.54395 -22.9941q0 -7.13281 2.36426 -10.6787q3.67773 -5.5166 16.416 -8.34766h3.8291q9.19727 0 20.8643 3.71777
q11.667 3.71875 25.4873 9.03418q14.6377 5.62988 24.2236 15.7344q10.9248 12.1377 10.9248 24.0137v0.928711q-2.21484 8.86133 -6.91113 18.6553q-9.12793 16.7354 -11.0908 71.6885l-5.00293 80.0439l-6.99512 336.763v13.9209q0 16.8291 0.992188 41.6426
q2.09082 31.1484 2.09082 45.0918q0 13.9443 -0.0830078 18.2656v10q0 20.749 -3.18066 36.6504q-4.13672 16.5488 -10.4736 33.9834q-6.33789 17.4336 -15.7021 24.8682q-8.9668 9.99805 -19.0244 9.99805t-20.1865 -15.082q-8.77441 -11.123 -15.1006 -33.2012
q-6.33203 -19.0547 -6.33203 -34.2168v-4q0 -7.68066 4.05371 -29.4805q4.05371 -21.7988 6.03418 -34.667q1.95703 -12.7266 4.93555 -50.4502l4.98926 -48.8721l3.56055 -88.1309l-67.165 21.4043q4.56836 4.34668 6.43359 9.72168t3.1582 10.5459v0.928711
q0 5.77148 -3.87988 13.5322l-20 35l-24.9072 49.8145q-14.3408 28.6816 -40.8896 62.3779q-26.5869 32.7227 -50.3916 49.3281q-22.6562 17.4795 -45.4424 26.8291l-12.5586 5.7959q-8.44727 4.82227 -14.2568 4.82227t-8.88672 -6.15332l-0.787109 -1.5752v-3.77148
q0 -7.10449 9.19727 -16.3027l13.2959 -13.2949q8.38867 -6.71094 23.6846 -24.3086t30.9648 -42.0732q15.7227 -25.5605 31.46 -60.9697q14.6465 -34.1748 17.54 -47.5176l4.37012 -24.0332h-12.2344q-7.80566 -2.60156 -17.5811 -8.0332
q-8.98535 -5.61523 -22.5986 -20.2637q-15.5195 -15.5391 -16.0723 -26.1787q-1.02637 -4.23633 -1.02637 -9.18262t5.0625 -10.0088q4.66602 -2.33301 11.4375 -2.33301h6q37.8682 4 47 4h6.42578l144.209 -21.9658l2.66113 -125.932q-32.3555 7.99512 -66.7764 19.4648
q-20.7598 7.91113 -34.0869 13.6221q-13.3262 5.71191 -24.9307 16.2607q-11.6045 10.5498 -20.6797 10.5498t-19.0967 -11.1494q-7.84766 -6.89941 -15.4912 -21.0957q-6.73438 -15.7129 -6.73438 -24.2549v-1.11621l10.2412 -33.7979l10.9023 -48.5645
q4.82617 -27.4404 4.85645 -62.2803q-0.859375 -13.1982 -6.42676 -25.3613q-5.57324 -13.377 -5.57324 -18.8799v-1.77148q7.36426 -14.7285 19.5 -14.7285q7.40625 0 18.6279 4.47266q20.4004 7.15039 29.3115 13.6152q11.0566 5.67773 17.9141 14.7188
q7.64648 8.98145 7.64648 15.5195q0 10.6865 -8.6377 28.2197q-6.18359 15.8135 -8.42676 37.9404l-5.03809 38.2539l-3.71289 22.2803q0.90332 2.4375 3.22754 3.68945l20.0195 -3.63477l84.6172 -12.0879l0.953125 -125.759l0.986328 -27.5459
q-0.981445 -11.5938 -2.87695 -24.8662q-1.625 -11.376 -7.67676 -26.7959zM788.408 253.588q-1.04395 -2.08789 -4.76172 -2.08789t-31.1562 6.98828q-27.4395 6.98828 -69.3047 8.00977l-55.6904 1.9209l-19.7705 13.9551q1.41211 0.435547 25.376 7.4248
q10.8281 3.24805 29.5342 13.6406q18.7607 10.4229 30.7725 21.3418q12.0117 10.9199 16.6436 23.6582q1.51367 4.16113 2.45703 7.44824l5.18945 -5.19043q11.5518 -11.5508 38.1846 -49.0342l26.0342 -36.0479q5.40234 -7.42773 6.49219 -12.0273z" />
</svg>