<!--Credit: 全字庫正楷體 https://www.cns11643.gov.tw/-->
<svg height="100" width="100" xmlns="http://www.w3.org/2000/svg">
  <circle r="48.5" cx="50" cy="50" stroke-width="3" stroke="#000" fill="#fff"/>
  <circle r="43.5" cx="50" cy="50" stroke-width="3" stroke="#000" fill="none"/>
  <path fill="#000" transform="translate(15.25,13) scale(0.07,0.07)"
d="M821.689 451.614q17.6475 -3.11426 26.5898 -3.11426q14.5967 0 48.6699 14.6025q14.5049 6.2168 28.2959 14.7041q13.792 8.4873 23.6133 21.5068q7.6416 9.00098 7.6416 17.6865q0 5.76953 -2.25488 9.15234q-6.23145 9.34766 -18.2451 9.34766h-126.186
q-40.9072 -0.998047 -69.8145 -1h-25.8809q-31.8779 0.999023 -83.6816 3.9873l-101.041 6.60254l-3.77344 256.607l23.7949 -3.1748l52.041 -4.00293q7.33594 -0.524414 43.542 -5.95312q29.709 -3.96191 45.0029 -7.01367q15.293 -3.05273 23.2637 -3.05273
q14.9385 0 53.7002 17.6094q20.207 8.28516 33.5977 21.8525q8.95996 8.58301 8.95996 17.1318q0 4.42773 -1.63867 7.89453q-4.9541 12.4727 -21.8027 12.5117l-94.001 2h-70.9512q-57.7979 1.99707 -128.046 7.47656q-94.166 7.34668 -125.851 12.8564
q-31.6836 5.51074 -47.3242 9.4209l-19.9355 5.24609h-9.97559q-9.10449 0 -26.0312 -5.27539q-39.0254 -9.79492 -53.4473 -26.0996q-8.04883 -7.6748 -8.04883 -15.2383q0 -0.443359 0.0273438 -0.886719v-2.62695q2.13477 -12.8086 17.2754 -13.8701
q59.2354 -1.74121 70.8184 -2.85156q11.584 -1.11035 58.4482 -7.09375l99.458 -10.2871v-255.502q-32.8867 5.11719 -61.5996 8.87891t-70.5322 11.7275l-64.9453 11.9902q-36.916 7.38574 -56.708 15.6279q-19.3047 7.50684 -25.7148 7.50684h-2
q-11.1836 0 -29.375 -7.93848t-33.6855 -18.2549q-17.1152 -10.709 -24.2773 -20.2588t-7.16211 -16.0479v-3.22168l0.382812 -1.14844q3.57129 -10.7129 21.4814 -12.1035l55.2363 -5.01562l37.9375 -1.99707q28.6299 -1.97949 59.2598 -6.91992
q114.858 -15.5977 201.702 -26.2324v-244.361q0 -35.5625 -7.51074 -56.3291q-3.64355 -9.06836 -10.0312 -18.2256q-7.54688 -9.71875 -10.1123 -16.1328q-0.845703 -3.3125 -1.3457 -9.3125v-4.44727q7.2207 -18.0527 34.5 -18.0527q33.7715 0 75.3467 20.7871
q16.8877 8.44434 27.2529 17.6572q11.1465 9.9082 11.9004 19.0557v3q0 6.88965 -2.22559 10.5615q-2.22461 3.6709 -5.7832 8.65234q-3.55762 4.98145 -6.21484 15.6084l-7.22559 22.7383q-3.69531 10.1631 -4.63477 18.6133q-1.29297 11.6357 -12.4727 222.66
q31.6367 -2.5459 56.999 -4.4248q16.9424 -1.25488 100.572 -10.0576q83.6299 -8.80371 100.029 -10.792q16.4004 -1.9873 34.1455 -4.94531z" />
</svg>