<!--Credit: 全字庫正楷體 https://www.cns11643.gov.tw/-->
<svg height="100" width="100" xmlns="http://www.w3.org/2000/svg">
  <circle r="48.5" cx="50" cy="50" stroke-width="3" stroke="#000" fill="#fff"/>
  <circle r="43.5" cx="50" cy="50" stroke-width="3" stroke="#000" fill="none"/>
  <path fill="#000" transform="translate(14.25,13.5) scale(0.07,0.07)"
d="M458.513 924.446l-2.0166 -113.446l1.81836 -84.4502q-12.0156 1.21777 -32.9209 1.94141q-28.791 1.99023 -71.5195 6.95801q-42.8164 4.97852 -66.6338 8.94824q-49.0596 8.17676 -93.9824 22.7559q-20.0967 6.34668 -27.1416 6.34668q-7.60449 0 -19.7031 -3.22852
q-12.0996 -3.22852 -20.6084 -7.4834q-8.50879 -4.25391 -23.7236 -14.3877q-24.9746 -14.1172 -26.5811 -33.4004q0 -9.3457 10.0879 -13.0137q5.05176 -1.83691 13.9307 -2.47168l18.0596 -1.00391l55.0596 -2.00293q16.8184 -0.992188 47.5137 -3.96094
q31.1934 -4.01953 85.6631 -8.0166q54.4707 -3.99805 105.302 -9.97852q0.323242 -0.03125 47.54 -3.52832l1.65234 -72.7012q-14.9297 1.36914 -105.226 4.98047l-3.11621 7.47852q-1.66309 4.15723 -9.90625 10.6211q-8.19336 5.24121 -15.6826 1.87207
q-7.48926 -3.37012 -13.6221 -13.1152q-5.96582 -8.45117 -8.13477 -19.8105q-2.1543 -11.8467 -22.0459 -159.28q-3.87305 -27.1152 -7.65234 -36.5645q-3.78027 -9.44922 -8.63965 -20.1553q-4.83203 -8.79199 -11.5859 -15.0459q-8.19727 -8.19824 -8.19727 -15.625
q0 -7.72461 7.34766 -12.9229q4.88281 -3.25488 12.1523 -3.25488h4.51465l47.6846 5.97266q47.3525 -2.96484 68.082 -4.93848q16.8047 -1.60059 78.3672 -10.0918l1.65625 -72.0459q-14.7676 1.70703 -32.1104 4.38477q-17.3438 2.67871 -42.4785 4.19824
q-25.1348 1.52051 -27.8984 1.52051q-45.1914 0 -64.6914 -9.55371q-12.373 -4.25488 -19.6094 -15.1514q-5.05859 -7.14746 -5.05859 -11.9443q0 -0.435547 0.0419922 -0.850586v-4.10449l2.19727 -2.19824q4.4248 -4.42383 12.5488 -6.16016
q73.6436 -7.36426 90.0205 -8.01953l59.874 -9.96875l28.3594 -3.24121v-18.9346q-0.988281 -10.1777 -1 -26.9502q-1.96094 -17.5908 -3.86328 -29.4893q-1.66113 -10.3896 -5.75391 -21.5635l-3.93555 -11.8057q-2.44727 -6.24512 -2.44727 -13.5645
q0 -7.49805 5.56543 -14.9189q8.02344 -4.01172 14.9346 -4.58105h3q9.36426 0 20.5742 4.45117q46.3809 15.4814 61.6143 33.7617q5.31152 9.29492 5.31152 15.8252q0 6.5293 -5.76758 15.8379q-2.49805 6.44922 -10.2324 43.624q-0.0224609 0.582031 -1.30664 17.2803
l56.6592 -9.69238q25.4092 -3.90918 42.0361 -7.79785q17.8438 -6.29004 26.4941 -6.29004q13.8389 0 48.3281 11.4961q9.83691 4.37207 17.3486 9.68848q10.4404 6.16699 10.4404 16.4854q0 10.3193 -13.7412 17.335q-10.3271 6.72461 -26.6748 8.91797
q-61.5381 9.61523 -83.3486 12.041q-45.1396 4.4043 -80.75 10.0273l-0.489258 5.87695l-0.876953 64.0146l42.2783 -5.80273q37.7988 -5.97754 79.4727 -21.6055q17.2656 -6.47461 23.6299 -6.47461h3q21.2178 0 59.4668 20.8477q23.1943 11.6152 34.1797 24.7148
q12.3906 13.5322 13.8535 22.3105v1.62695q0 10.6523 -19.5889 34.6172q-12.2637 16.4219 -19.7031 42.46l-36.0029 125.01q-11.6836 40.3633 -23.6758 53.9785q-13.2324 14.4346 -26.5293 14.4346h-3q-12.0039 0 -18.2803 -7.12988q-5.79883 -4.81934 -7.62109 -10.2607
l-7.01758 -11.2295l-100.739 8.99512l-1.65332 71.1289q19.5098 -1.26172 91.6504 -8.47559q79.9766 -6.99707 109.357 -9.98535q25.5898 -2.60254 86.1045 -10.9492l38.8506 -7.15723q25.5439 2.32227 60.2314 22.1436q11.1768 7.18555 23.9678 21.7168
q9.67285 10.2002 9.67285 19.7627q0 0.470703 -0.0234375 0.94043v2.05566l-0.287109 1.00586q-3.28906 11.5098 -22.9199 14.9746q-19.6299 3.46387 -40.293 3.46387q-0.362305 -0.00878906 -42.1816 -2h-140.709q-34.873 0.999023 -88.6875 3.98828
q-44.9404 2.49707 -86.9219 5.49512v39.0166l-0.0146484 0.473633q-1.99805 31.9629 -3.99609 69.9258q-2.95117 56.0771 -9.14648 89.1357q-4.95215 23.7676 -7.02051 38.249q-2.06934 14.4814 -9.87793 30.0986t-17.4443 15.6172h-2q-11.0645 0 -15.334 -19.9238
q-3.10449 -14.4902 -4.12793 -28.2861q-1.02246 -13.7959 -2.02539 -30.8438zM607 533.5h7q13.6025 0 21.1338 3.68262l5.81445 2.49121q10.4756 -39.917 16.667 -61.1465q6.19238 -21.2285 8.50195 -29.9951q-6.91309 2.81055 -12.5361 4.52441
q-10.2061 4.32129 -55.8984 11.2744l-62.3408 9.15234l-1.62891 66.0039q9.99414 -1.22363 17.6816 -2.07812l23.1006 -2.89258q15.251 -1.0166 32.5049 -1.0166zM376 490.5h-4l-19.9277 -2.0918q1.38379 21.1387 1.42578 25.2773l3.39453 44.124l76.3057 -7.26758
l27.4668 -3.23145l1.62793 -65.1055q-6.76855 0.62207 -32.1543 3.44043q-43.748 4.85547 -54.1387 4.85449zM614 397.5q8.83398 0 21.5303 3.15039q13.0879 2.18262 17.3779 4.94434l18.1182 10.3535l5.65234 -42.5801q1.82129 -8.19727 1.82129 -15.8965
q0 -7.7002 -1.99902 -11.6973q-1.99902 -3.99805 -3.34863 -4.79199q-1.42676 -0.651367 -2.7832 -0.651367q-1.35742 0 -2.36914 0.168945h-6q-9.68945 0 -25.2939 0.970703l-15.9873 1.99512q-41.7383 3.97559 -47.4785 4.93164l-35.8213 5.9707l-0.796875 62.1582
l33.5742 -7.80859l42.832 -11.2178h0.97168zM457.349 430.504l5.30859 -0.884766l1.61328 -64.5186q-9.10352 1.42578 -26.2988 3.33789q-27.0596 4.00684 -35.6875 4.06055l-62.0225 4.43066q3.38477 32.0566 5.09277 40.5938q0.129883 0.987305 1.62891 24.2266
q17.1016 -1.77148 40.6543 -4.48926q57.2393 -6.60449 69.7109 -6.75684z" />
</svg>