<!--Credit: 全字庫正楷體 https://www.cns11643.gov.tw/-->
<svg height="100" width="100" xmlns="http://www.w3.org/2000/svg">
  <circle r="48.5" cx="50" cy="50" stroke-width="3" stroke="#000" fill="#fff"/>
  <circle r="43.5" cx="50" cy="50" stroke-width="3" stroke="#000" fill="none"/>
  <path fill="#000" transform="translate(14.5,12.25) scale(0.07,0.07)"
d="M603.229 240.5h5.77148q12.165 0 23.3535 4.93555t38.5498 22.1592q15.7607 9.34766 23.0898 16.7451q7.50684 7.57617 7.50684 14.6602v3q0 9.77148 -5.05078 19.873q-5.35254 7.49316 -10.7051 14.9873q-0.423828 1.0293 -10.4102 44.7158l-31.9629 159.817
q-12.7607 72.251 -35.7236 114.084q-11.4482 22.8535 -26.1533 37.6328q-13.5957 15.6367 -28.4102 25.5137q-14.8145 9.87598 -24.084 9.87598h-2.53906q-11.1523 -1.59277 -21.0215 -18.8652l-9.78223 -17.6074q-43.21 -59.6719 -46.8848 -65.874
q-3.6748 -6.20117 -3.91016 -7.07129l-6.46484 -8.08105q-4.89746 -4.93652 -4.89746 -10.7871q0 -6.37695 7.12988 -9.33105q8.46875 -2.82324 14.8916 0.495117l33.4746 17.7236l19.5869 6.85449q11.8135 4.54395 17.417 4.54395h3q5.39648 0 11.8506 -8.06738
q12.3564 -15.4453 25.8076 -74.9766q18.7832 -97.0654 21.8682 -134.086l5.97363 -68.3701v-4.71973q-0.848633 -11.124 -5.97461 -17.1465q-6.01562 -5.76953 -21.7305 -6.63379h-4.79492q-19.6865 0 -100.814 12.9062q-37.332 5.51465 -67.8936 11.9824
q-20.8066 3.61914 -46.3672 13.3652t-36.9248 9.74609h-4q-17.0918 0 -27.9248 -7.10449l-16.292 -9.30957l-25.2891 20.918q-42.2217 31.666 -79.5098 47.8779q-18.834 7.62012 -23.8809 7.62012q-0.0546875 0 -0.103516 -0.00195312q-4.10449 0 -7.30273 -3.19727
q-3.19727 -3.19824 -3.19727 -8.30273t5.45605 -10.5605q17.2812 -14.2314 17.5498 -14.4434q9.2998 -6.97461 27.3672 -24.4678q13.25 -12.4219 40.458 -44.4365q24.1582 -27.875 37.2822 -45.5586q13.125 -17.6826 33.9512 -53.3838q19.5791 -32.6328 25.9531 -45.668
q11.9824 -24.5068 11.9824 -51.4814q0 -18.749 6.50098 -23.624q6.50098 -4.87598 14.1885 -4.87598t22.2598 7.83887q14.8818 7.45898 27.6162 19.1318q24.4346 22.3984 24.4346 36.5293v2.22168q-2.08301 6.24805 -9.0752 11.8418q-5.65137 3.76758 -9.12207 7.23926
q-7.16895 7.16797 -43.1494 56.9863q-25.2383 37.3477 -34.5781 47.7246l-22.1729 24.6377q56.2871 -8.04102 61.1211 -9.00781l114.291 -20.0508q43.8535 -6.97754 53.709 -8.94727l29.6562 -5.93164q41.5322 -12.4561 45.0488 -14.2139zM368.859 858.549
q69.5732 7.95117 122.171 7.95117t117.216 -5.96289q64.1416 -6.91113 107.383 -20.6543q41.5254 -14.4971 58.3916 -29.4893q16.7832 -14.918 25.1279 -32.4521q7.80859 -18.5654 15.6377 -42.0215l9.88184 -40.5166l3.85742 -20.25q0.742188 -12.6533 11.4746 -12.6533
q9.0791 0 13.0977 10.0459q5.09863 17.3369 5.29297 18.1729l5 29q0.958984 4.26172 9.28027 33.8506q8.32227 29.5879 20.5752 52.0527q12.2539 22.4648 12.2539 32.3779v1q0 10.916 -15.8252 27.9102q-17.4014 21.5352 -65.1445 38.1523q-46.3418 17.123 -86.2363 27.2227
q-39.8936 10.0996 -97.3721 17.1582q-37.5986 4.05664 -98.9219 4.05664h-38.1738q-88.7578 -2.01758 -155.719 -17.2363q-66.9609 -15.2197 -109.194 -40.9717q-42.2324 -25.752 -59.1582 -51.1396q-16.9287 -25.3936 -21.0928 -52.9834t-4.16406 -61.1689
l3.00586 -170.271l0.982422 -27.4697l-4.95996 -47.6289q-0.839844 -10.0811 -4.93359 -16.2207q-4.09277 -6.13965 -4.09277 -11.4092v-1q0 -6.87207 5.8291 -11.0215q6.81543 -4.85156 15.6709 -5.47852q13.7715 0 27.6035 6.91602l21.4102 13.0088l7.20312 6.48242
l26.1328 -5.22656q16.0254 -4.00391 29.8486 -6.96582q27.3008 -5.85059 44.4551 -14.4277q15.6006 -6.80371 19.7881 -8.89355q13.1738 -7.6543 23.0859 -8.89355h5.47266q7.56641 0 15.6846 1.71973q8.11816 1.71875 24.9805 12.2275q17.6484 8.85547 27.7412 17.5029
q10.0938 8.64844 10.0938 20.0498v2.74902q-1.47754 7.38574 -8.71973 17.042l-11.1221 12.1338q-4.61426 5.61719 -15.0762 23.6748l-13.7451 26.5088l-16.6973 42.1836q16.3604 12.3955 16.3604 23.708v1.62695q-1.70215 10.2129 -10.9023 14.958
q-5.92676 3.96582 -21.8604 3.96582q-1.80469 0 -3.7373 -0.0507812h-6q-15.3174 0 -36.6514 3.87891q-0.447266 0.0673828 -50.1914 6.03711q-42.4424 8.08398 -47.1572 8.08398q-0.938477 -0.0585938 -8.72266 -1.03125l-1.77734 66.6328
q0.0107422 46.4209 9.19922 68.4736q9.18848 22.0518 42.8477 39.5889q33.6602 17.5361 103.312 25.3848zM325.737 581.603q18.7627 -84.4316 18.7627 -86.1426q0 -3.95996 -5.28516 -3.95996q-5.28613 0 -13.2861 2h-0.928711q-4.2207 0 -27.6123 4.87305
q-29.8799 4.98047 -68.4375 14.6211q-0.273438 2.56934 -5.49414 33.8994l-4.24512 59.4209l81.3125 -19.6689z" />
</svg>