<!--Credit: 全字庫正楷體 https://www.cns11643.gov.tw/-->
<svg height="100" width="100" xmlns="http://www.w3.org/2000/svg">
  <circle r="48.5" cx="50" cy="50" stroke-width="3" stroke="#000" fill="#fff"/>
  <circle r="43.5" cx="50" cy="50" stroke-width="3" stroke="#000" fill="none"/>
  <path fill="#000" transform="translate(14.5,12.75) scale(0.07,0.07)"
d="M475.854 592.896q0.645508 -13.7598 0.645508 -30.0381t-1.9082 -28.6807q-4.49219 -28.457 -6.79199 -34.7061t-2.2998 -12.6016t6.61914 -11.5742q7.83691 -6.65332 21.0391 -1.50781l23.6641 4.93652q16.9961 4.24902 32.2207 12.9482q16.3037 11.6455 19.0742 19.958
q1.38281 4.14844 1.38281 8.57324q0 4.42383 -0.56543 7.42578q-0.979492 5.20117 -6.70703 17.6113q-5.72754 12.4092 -5.72754 16.7598q-0.0292969 0.666992 -2.25586 25.8965l132.215 -9.37695q52.9102 -3.7793 95.374 -11.8994t56.167 -8.12012
q6.19336 0.341797 26.6641 4.18066q18.5254 4.93945 37.5537 13.5439q22.167 10.5557 30.2246 18.6133t8.05762 17.1621v0.749023q-1.88477 9.4248 -11.7871 15.7676q-8.7207 4.9834 -26.7129 4.9834h-60q-44.0293 0 -72.1357 -1q-70.707 0 -94.5137 0.992188
l-123.174 5.68457l-11.6768 253.003q-0.0283203 12.7402 -4.10449 32.1035t-8.48242 37.8691q-4.40625 18.5068 -14.5547 36.8516q-8.08887 14.5127 -17.7148 14.5127q-0.321289 0 -0.643555 -0.0166016q-10.2549 0 -16.9668 -15.7188q-4.4707 -11.1768 -5.52246 -39.3486
l-3.03125 -39.4023l2.02441 -29.3525l3.86816 -245.606q-112.524 8.13379 -119.498 8.75586t-53.6592 7.5752q-44.2676 6.59375 -61.5068 10.9023l-30.1318 7.0293q-14.4062 3.08691 -25.1973 4.16602h-8.37891q-12.3867 0 -19.5762 -1.16602
q-16.6357 -3.56543 -28.9717 -9.72559q-13.2139 -7.11523 -22.1162 -12.6797q-8.90234 -5.56348 -13.8535 -15.1982q-4.9873 -7.93848 -1.2832 -19.0488q2.24023 -3.36133 5.03906 -4.49414q6.64453 -2.6875 25.7617 -2.6875h28.708l25.8916 -1.99121l35.1826 -1.00586
h0.108398q29.3311 0 30.9863 -0.827148l110.479 -11.1494l94.21 -8.0166zM421.5 327q0 14.1338 -22.458 34.5508q-10.3125 9.37402 -14.0391 14.9648l-20.833 24.5537q17.3457 5.19531 31.374 9.87109q19.3096 7.50977 32.6543 18.6309q10.9648 12.0605 19.3945 27.8516
q5.94336 9.81152 5.94336 19.126q0 0.727539 -0.0361328 1.45117q0 8.49805 -3.56641 16.8643q-7.28809 18.1611 -19.5635 22.2529l-1.14844 0.382812h-5.22168q-9.91309 0 -22.876 -7.07031q-20.0986 -13.3994 -36.2852 -36.1543l-26.665 -38.3301
q-18.1357 19.4775 -31.958 32.4434q-16.4297 16.4102 -40.3525 33.208q-23.9219 16.7969 -35.4854 23.1045l-14.752 6.88477q-4.65527 2.91406 -9.62598 2.91406q-8.85742 0 -11.2764 -9.67773l-0.223633 -0.893555v-2.92871q0 -8.10449 6.19727 -14.3027l10.3232 -10.3037
q8.62305 -7.66504 23.2412 -24.2236l36.8359 -45.7969q22.6221 -29.5117 32.4639 -47.2275q10.6797 -16.5049 19.3848 -39.6982q6.30957 -22.5371 6.55371 -28.4473v-4.46777q-1 -7.18457 -1 -12.5322v-3.92871q2.16895 -8.67383 9.84766 -11.1123
q5.05566 -1.46289 5.82129 -1.46289q5.99219 0 13.0449 2.33496l13.9414 3.9834q11.2168 3.36523 22.9727 11.915q11.7549 8.54883 18.7695 15.5635q7.01367 7.01367 8.60254 14.958v0.749023zM438.287 91.3467q-1.8916 -4.56738 -1.8916 -6.43262t0.104492 -2.91406
v-3.77148l0.787109 -1.5752q3.1416 -6.28223 13.7129 -7.15332h2q6.10449 0 17.0918 3.2959l30.917 8.97656q19.6387 5.45508 36.9268 20.582q17.3896 15.2158 24.0605 32.9395q8.03223 20.1338 2.10156 33.2432l-5.15723 20.6299l75.1211 -9.6084
q39.3125 -4.91406 64.5371 -12.9863q25.2256 -8.07227 34.127 -8.07227t21.8086 2.15137q34.2959 8.57422 49.7686 24.0459q8.19727 8.19824 8.19727 17.1123q0 8.91504 -9.70605 14.6504t-36.1973 11.3545t-102.901 11.6543l-114.075 12.0078l-219.307 18.0234h-47.3135
l-0.541016 -0.0195312q-14.4043 -1.02832 -32.083 -4.29883q-17.6787 -3.26953 -24.6299 -7.25293t-8.09863 -9.54883q-2.40039 -11.6455 0.516602 -17.4795q3.43457 -6.87012 9.48926 -10.6133q5.43945 -2.71973 33.084 -3.78223q61.4639 -2.12012 86.5215 -4.04688
q25.0566 -1.92773 122.909 -11.9121l28.1152 -3.34766q-10.4453 -12.6143 -14.1426 -19.0859q-3.69824 -6.47168 -19.7119 -36.4971q-15.917 -28.8496 -18.2686 -34.5225zM801.5 469q0 15.2158 -5.78711 27.3467q-7.87305 15.7451 -23.3682 17.1533h-4.34473
q-11.3066 0 -26.1562 -10.2559q-14.6279 -9.41992 -29.1484 -23.9395l-48.9043 -51.8984l-9.75391 -8.53418q-17.0684 21.6279 -29.7236 33.4268q-12.502 13.4746 -33.8877 27.7637l-16.0791 12.6504q-8.86914 3.41211 -15.6934 0l-2.24414 -1.12207
q-5.41602 -10.833 0.173828 -19.4814l29.9814 -51.96q5.7998 -9.66602 19.6348 -39.3145q13.8193 -29.6113 18.6836 -44.2051q11.6172 -34.8516 11.6172 -50.6299v-19.2217q2.07715 -6.23242 7.6582 -10.5176q3.06348 -2.76074 8.26465 -2.76074q5.20215 0 17.5771 5.625
l15.8232 6.92285q15.8262 5.99707 34.4795 24.6494q7.19727 7.19824 7.19727 16.3027v4.77148q-2.33301 4.66602 -7.19727 9.53125l-7.58887 7.58789l-15.4688 24.2617l-22.4141 33.6211q14.9102 4.49023 49.3506 13.9717q34.4395 9.48047 53.7217 26.5801
q21.1797 17.8662 23.5967 37.2021v4.47266z" />
</svg>