<!--Credit: 全字庫正楷體 https://www.cns11643.gov.tw/-->
<svg height="100" width="100" xmlns="http://www.w3.org/2000/svg">
  <circle r="48.5" cx="50" cy="50" stroke-width="3" stroke="#000" fill="#fff"/>
  <circle r="43.5" cx="50" cy="50" stroke-width="3" stroke="#d00" fill="none"/>
  <path fill="#d00" transform="translate(9.5,14) scale(0.07,0.07)"
d="M591.5 408v-4q-82.8066 67.6084 -94.0039 76.0068l-43.6611 30.6553l14.082 7.82227l9.71289 -0.601562q3.85742 -1.28613 53.6016 -5.3457q48.5557 -5.94531 66.6621 -7.96094l26.959 -4.98828l13.9395 -2.14551q-0.878906 -1.37109 -32.1611 -57.4639
q-15.1309 -21.6514 -15.1309 -31.9785zM749.518 261.306q0 0.351562 -0.0175781 0.694336v0.539062q-1.64746 11.5332 -9.15332 16.1738q-4.47363 2.23633 -15.8145 6.0166t-35.8174 30.2148q-24.4766 26.4355 -65.7695 62.6924q-0.176758 0.151367 -13.1621 10.8633h2.2168
q24.3789 1.01172 50.5957 14.542q26.6611 13.7598 34.3711 32.1768q4.5332 11.334 4.5332 20.5879q0 13.0449 -7.88281 32.9199q32.1953 -4.41797 46.4961 -7.9873l25.8184 -6.95117l23.9473 -7.28809h1.12109q7.87598 0 26.1387 4.29688t30.6055 14.3955
q13.7559 11.2549 13.7559 18.0703q0 7.74414 -4.64062 14.417q-5.88184 7.35254 -31.749 10.7393q-70.0166 11.6689 -73.1719 12.0234l-76.4688 10.3105q5.08789 3.94238 9.17578 8.31152q8.85449 10.1191 8.85449 17.251t-4 17.1318t-4 12.5527v0.682617l-0.34668 1.9043
q6.24316 -0.787109 10.791 -2.08691h1.05566q6.13965 0 18.5781 -2.87012q42.0293 -6.4668 54.0156 -7.79785q11.9854 -1.33203 22.6914 -1.33203q10.7051 0 33.6143 6.24219q25.6104 6.14062 25.6104 19.7344q0 0.260742 -0.00976562 0.523438v2
q0 14.9834 -17.6455 18.2891l-14.6484 4.88086q-13.7832 4.24121 -42.5312 6.30078q-27.8018 2.98145 -55.6064 6.9541l-41.0967 5.23047l-0.47168 5.66113v49.8926q12.6006 -1.91016 22.7891 -2.75977q10.1875 -0.848633 13.041 -1.7998q3.43457 -1.14453 52.4688 -9.05371
q9.22168 -1.0957 23.2012 -1.0957q17.0752 0.942383 41.9492 11.6025q18.71 8.01855 19.5508 19.8975q0 13.0176 -14.8926 16.3271l-31.8223 6.96094q-11.7314 3.14648 -55.2158 7.14551q-40.8594 3.75781 -53.4219 5.97852l-19.8174 3.04883l-1.60352 60.1572
q21.2236 -2.2373 35.5791 -3.09082q31.4531 -3.92578 50.6748 -5.45703q19.2217 -1.53223 47.9873 -5.5q36.8887 -4.07129 40.4121 -4.07129t3.62012 0.000976562l0.421875 0.0117188q19.2256 1.06836 30.5283 6.58008q11.3994 4.19043 23.71 11.3604
q13.3027 7.16895 18.1074 11.7246q7.80176 5.51074 10.7324 15.7676v2.05566q0 12.6777 -24.373 15.4209l-21.9473 4.07715l-84.7461 1.99414l-65.9648 5.99609l-121.88 3.99609l-65.084 7.99902q-15.041 1.00293 -33.083 2.00488l-0.209961 0.0117188h-30.2119
l-0.541016 -0.0195312q-14.5801 -1.04102 -22.5869 -4.24316l-2.29492 -0.416992q-0.540039 5.51465 -1.07812 12.4795q-0.0488281 13.3662 -4.25098 29.6348q-4.3584 16.3418 -13.25 28.5684q-9.33105 11.9971 -18.998 11.9971h-1q-8.89648 0 -17.7383 -12.4043
q-8.84082 -12.4043 -13.1201 -22.5674q-4.2793 -10.1641 -7.95996 -24.3535q-3.68164 -14.1885 -3.68164 -20.0107q0 -8.40234 5.25195 -28.0986q5.39648 -17.3311 8.10059 -36.665q4.52539 -32.3555 7.65625 -69.8271l4.01758 -138.203
q0.973633 -11.6865 0.973633 -21.8184q0 -20.7344 -3.37109 -37.1523q-3.37012 -16.417 -3.59082 -20.8906l-3.36621 -8.65625q-30.8145 18.8594 -68.4492 39.6592q-37.54 22.3027 -100.029 45.4902q-60.4551 24.1777 -91.0986 30.3291l-30.7256 7.16895h-5.86914
q-14.5 0 -14.5 -11.5v-1q0 -10.7998 17.3633 -18.8135q0.398438 -0.169922 24.7305 -9.60645q24.333 -9.43652 88.8584 -43.1885q58.6045 -31.5566 110.656 -63.8027q45.6074 -27.7617 107.247 -76.4756q61.8037 -48.8457 113.32 -95.4092
q51.5166 -46.5625 66.1201 -69.9277q28.915 -46.2646 30.7354 -64.4629q1.34473 -14.7939 4.88379 -18.333t12.3633 -6.48047h1.22168q5.9043 0 17.3037 4.45117t25.1582 15.0205q14.8457 10.6318 27.4707 27.4395q13.585 16.0195 13.585 25.8945zM484 571.5h-4.38574
q-1.15137 3.80273 -2.30859 7.30273l-1.98438 15.8291q-1.82129 8.19727 -1.82129 20.3682v17.958q12.0186 -0.924805 26.8594 -2.6709q14.8408 -1.74512 48.877 -4.74902q38.3672 -4.38574 65.458 -7.99805q-1.51562 -12.3164 -2.99902 -19.8145
q-4.84277 -17.7246 -11.8242 -37.6729q-20.2354 2.04102 -48.1797 5.72852q-43.3438 5.71875 -67.6914 5.71875zM513.521 685.5h-21.041l-21.1973 -2.92383l-1.58496 61.8184q4.98633 -0.936523 23.7197 -1.875l47.6943 -4.96777l73.5801 -9.46875l1.55957 -55.3389
q-20.9727 3.0498 -40.165 4.87695q-17.5947 1.67578 -62.5654 7.87891zM501 796.5h-7q-7.5791 0 -25.7266 -2.79199l-1.56445 59.4512q16.8672 -0.655273 33.1006 -0.65918l39.6064 -1.98047l72.2686 -7.43652l1.58105 -58.5273q-16.3135 2.06055 -25.248 2.88281
q-11.2822 2.02539 -32.71 4.01953q-10.9453 1.01758 -28.4365 3.03027q-17.4922 2.01172 -25.8711 2.01172zM686.5 119v-3.74902l0.145508 -0.727539q2.20508 -11.0234 14.3545 -11.0234q3.12598 0 7.05273 1.27832l24.5059 5.88184q11.5547 2.13965 45.749 13.2021
q36.4365 11.7881 59.6553 21.7822q23.2197 9.99414 41.7031 27.3916q18.4844 17.3965 20.834 38.543v6.4209q0 15.667 -5.23828 29.4502q-5.2373 13.7832 -16.7695 20.1895q-5.7207 2.86035 -12.749 2.86035q-7.0293 0 -16.166 -3.39746q-14.4609 -4.52148 -30.502 -19.4414
q-16.3066 -13.2783 -30.582 -29.5674l-43.7959 -44.791q-19.5059 -19.5068 -37.8496 -32.0576l-11.8691 -7.91309q-8.47852 -5.20508 -8.47852 -14.332zM513.689 118.688q-4.81934 -19.2461 -10.0039 -30.6533q-5.18555 -11.4072 -5.18555 -17.5186t5.5752 -13.1143
q4.61328 -6.93262 18.9443 -6.93262q0.967773 0 1.98047 0.03125h5q9.39746 0.467773 28.0332 6.27637q17.0352 4.28711 30.251 12.6963q13.2158 8.41016 13.2158 17.5273v2q0 9.21777 -4.78711 20.3467q-3.62305 7.24609 -6.41992 18.4102
q-2.71973 15.1777 -2.79297 19.2432l-3 71q0 10.7285 0.980469 24.459l0.0195312 0.269531v39.2715l-0.0410156 0.792969q-2.26465 21.5117 -11.7852 34.8789q-9.52148 13.3682 -21.2012 14.8281h-1.47266q-10.666 0 -20.7236 -13.623q-8.86719 -9.05078 -12.8213 -20.3535
q-3.95508 -11.3018 -3.95508 -21.5234v-5q0 -6.89844 4.01172 -33.6426q0.0585938 -2.19336 0.995117 -24.6748l0.0195312 -0.3125q1.87109 -22.457 1.97168 -26.2305l-1.97949 -40.5723q-0.976562 -9.56348 -4.8291 -27.8799zM235 367.5h-5.10449l-2.19824 -2.19727
q-4.19727 -4.19824 -4.19727 -11.3027v-0.928711q1.9375 -7.75195 12.8203 -16.9307l14.9385 -11.9502q5.78223 -4.83789 25.374 -24.4277q19.6826 -20.6699 29.5088 -32.4463q22.2148 -28.9141 39.0293 -62.4307q4.39844 -10.6377 5.33008 -20.2471
q0.0546875 -19.5127 9.80469 -26.5088q7.48438 -6.52832 21.5605 3.41797q15.9248 7.98926 22.5303 13.3594q8.86328 5.66309 17.2275 16.1182q11.0146 13.7686 13.8926 18.2617q4.9834 8.7207 4.9834 14.7129v2.22168q-1.94141 5.82422 -5.75879 9.6416
q-3.81641 3.81641 -8.19141 7.09766l-16.709 12.7783l-28.9092 26.915q-11.3369 9.27539 -33.459 25.3662q-49.0742 37.3789 -81.7676 48.9795l-19.335 8.11719q-7.14844 2.38281 -11.3701 2.38281z" />
</svg>